<svg width="285px" height="70px" viewBox="0 0 285 70" version="1.1" xmlns="http://www.w3.org/2000/svg">
  <g id="Home-page" stroke="none" stroke-width="1" fill="none" fill-rule="evenodd">
    <g id="2-Home-page-full-text" transform="translate(-324 -8607)">
      <g id="footer" transform="translate(0 8418)">
        <g transform="translate(0 189)" id="end">
          <g id="Group-2" transform="translate(324)">
            <g id="we-accept" transform="translate(0 48)">
              <g id="icon/payment/maestro" transform="translate(255.56 1.78)">
                <g id="maestro" fill-rule="nonzero">
                  <g id="Group" fill="#009DDD">
                    <path d="M14.48 15.65a9.07 9.07 0 002.85-6.64c0-2.63-1.1-5-2.85-6.65A8.42 8.42 0 008.68.04C3.9.04 0 4.06 0 9c0 4.96 3.89 8.96 8.67 8.96 2.24 0 4.27-.88 5.8-2.32z" id="Path"/>
                    <path d="M14.48 15.65a9.07 9.07 0 002.85-6.64c0-2.63-1.1-5-2.85-6.65v13.3z" id="Path"/>
                  </g>
                  <path d="M20.3.04a8.5 8.5 0 00-6.68 3.27h1.74c.24.3.46.63.66.94h-3.07c-.18.32-.35.64-.5.95h4.07c.13.32.27.64.37.95h-4.8c-.1.32-.19.64-.26.97h5.31a9.32 9.32 0 01-.25 4.74h-4.8c.1.32.22.63.35.95h4.08c-.16.32-.3.65-.5.95h-3.07c.2.33.43.65.67.95h1.74a9.1 9.1 0 01-.88.94 8.5 8.5 0 005.82 2.32c4.78 0 8.65-4 8.65-8.95 0-4.96-3.87-8.98-8.65-8.98z" id="Path" fill="#ED1C2E"/>
                  <g id="Group" transform="translate(2.88 6.67)" fill="#FFFFFF">
                    <path d="M23.08 4.48c0-.28.24-.49.52-.49.27 0 .48.21.48.49 0 .27-.21.51-.48.51a.53.53 0 01-.52-.51zm.52.4c.2 0 .36-.19.36-.4a.35.35 0 00-.36-.37c-.22 0-.4.16-.4.37s.18.4.4.4zm-.06-.19h-.13v-.42h.19c.06 0 .09 0 .12.03s.06.06.06.09c0 .06-.03.12-.1.12l.1.18h-.12l-.06-.15h-.06v.15zm0-.24h.12v-.09H23.54v.09z" id="Shape"/>
                    <path id="Path" d="M4.71 4.57H3.63l.64-3.5-1.48 3.5h-.98L1.64 1.1 1 4.57H0L.84.02h1.7l.08 2.81 1.2-2.8h1.74zM16.75 4.52c-.3.09-.52.12-.78.12-.54 0-.84-.28-.84-.8l.03-.34.07-.37.05-.28.49-2.83h1.07l-.15.85h.56l-.16.9h-.56l-.27 1.54-.03.16c0 .19.12.28.37.28.12 0 .22-.02.29-.04l-.14.81zM19.9.9l-.13-.03c-.05-.02-.08-.02-.08-.04h-.12c-.36 0-.61.16-.93.6l.1-.56h-.99l-.66 3.7h1.09c.39-2.26.54-2.67 1.07-2.67l.13.02.12.03.4-1.05zM12.48 2.04c0 .46.25.8.83 1.02.44.2.51.25.51.42 0 .23-.2.34-.63.34-.32 0-.63-.06-.98-.16l-.14.86h.05l.19.05.29.02c.25.04.46.04.6.04 1.15 0 1.69-.4 1.69-1.23 0-.51-.22-.81-.78-1.04-.46-.18-.51-.23-.51-.4 0-.2.19-.3.54-.3.2 0 .51.02.78.05l.15-.84a6.29 6.29 0 00-.95-.07c-1.22 0-1.64.56-1.64 1.24z"/>
                    <path d="M8.2 4.57h-.88l.02-.38c-.27.3-.64.43-1.14.43-.57 0-.98-.4-.98-1 0-.9.7-1.42 1.9-1.42.12 0 .27 0 .44.02.03-.12.03-.18.03-.23 0-.25-.18-.33-.7-.33-.3 0-.64.03-.87.08l-.16.06-.1.01.15-.82c.55-.14.89-.2 1.3-.2.93 0 1.4.37 1.4 1.08 0 .19-.01.33-.08.74L8.3 3.92l-.04.23-.03.2-.02.12-.02.1zm-.78-1.65L7.2 2.9c-.61 0-.92.2-.92.57 0 .22.14.38.37.38.45 0 .77-.38.78-.93zM11.75 4.48c-.37.11-.73.16-1.1.16-1.2 0-1.83-.58-1.83-1.67 0-1.26.8-2.2 1.88-2.2.88 0 1.44.53 1.44 1.34 0 .28-.03.55-.12.92H9.87v.12c0 .42.3.65.93.65.39 0 .75-.07 1.12-.23l-.17.91zm-.58-2.2V2.1c0-.3-.18-.48-.5-.48-.35 0-.58.25-.68.67h1.18zM23.25 2.89c-.17 1.22-1 1.77-2.1 1.77-1.2 0-1.7-.76-1.7-1.7 0-1.3.83-2.2 2.12-2.2 1.12 0 1.71.74 1.71 1.67 0 .23 0 .25-.03.46zm-1.12-.48c0-.39-.15-.74-.6-.74-.54 0-.87.67-.87 1.27 0 .5.23.82.6.82.24 0 .75-.33.84-.9.03-.13.03-.29.03-.45z" id="Shape"/>
                  </g>
                </g>
              </g>
              <g id="icon/payment/american" transform="translate(132.67 3.56)">
                <g id="american">
                  <g id="american-express" fill-rule="nonzero">
                    <path d="M9.67 6.18V5.7l-.23.47H7.47l-.24-.5v.5H3.54l-.43-1.02h-.74l-.46 1.02H0V3.12L1.4 0h2.68l.38.88V.01h3.27l.73 1.48.7-1.49h10.35s.54 0 .9.24V0H23v.34S23.48 0 24.18 0h4.6l.4.9V0h2.95l.53.9V0h2.82v6.18h-2.9l-.67-1.08v1.08h-3.6l-.5-1.1h-.71l-.48 1.1h-2.18s-.8-.01-1.42-.44v.44H18.7V4.73c0-.2-.17-.19-.17-.19h-.16v1.64H9.67z" id="Fill-1" fill="#FFFFFF"/>
                    <g id="Group-5" transform="translate(7.45 7.43)" fill="#FFFFFF">
                      <path d="M.06.08h5.7l.82.92.84-.92h4.38s.4.01.8.22V.08h3.9c.5 0 .91.25.91.25V.08h5.01v.23s.36-.23.84-.23h3.27v.23s.41-.23.85-.23h2.56v5.83s-.34.38-1.03.38h-3.39V6.1s-.32.19-.8.19h-8.99V4.78c0-.15-.07-.18-.2-.18h-.12V6.3H12.6V4.62s-.31.16-.83.16h-1.01v1.5H7.3l-.79-.94-.84.95H.06V.09z" id="Fill-3"/>
                    </g>
                    <path id="Fill-6" fill="#0077A6" d="M25.46 8.45h3.58v.94h-2.48v.82h2.41v.83h-2.41v.87h2.48v.92h-3.58z"/>
                    <path d="M35.95 10.15c1.34.07 1.45.73 1.45 1.44 0 .82-.68 1.26-1.4 1.26h-2.3v-.94h1.8c.3 0 .75 0 .75-.42 0-.2-.08-.33-.4-.36-.15-.02-.68-.05-.76-.05-1.21-.04-1.5-.63-1.5-1.35 0-.83.6-1.27 1.3-1.27h2.3v.93h-1.68c-.38 0-.8-.04-.8.39 0 .26.21.32.47.34l.77.03" id="Fill-8" fill="#0077A6"/>
                    <path d="M31.83 10.15c1.34.07 1.46.73 1.46 1.44 0 .82-.69 1.26-1.4 1.26h-2.3v-.94h1.79c.3 0 .75 0 .75-.42 0-.2-.08-.33-.4-.36-.14-.02-.68-.05-.75-.05-1.22-.04-1.5-.63-1.5-1.35 0-.83.59-1.27 1.3-1.27h2.3v.93H31.4c-.39 0-.8-.04-.8.39 0 .26.2.32.47.34l.76.03" id="Fill-10" fill="#0077A6"/>
                    <path d="M18.5 10.45h-1.37V9.4h1.37c.46 0 .6.28.6.5 0 .3-.16.55-.6.55zm-2.47 1.97l-1.57-1.83 1.57-1.71v3.54zm-4.18-.51H9.33v-.87h2.4v-.83h-2.4V9.4h2.66l1.06 1.2-1.2 1.32zm7.01-3.46h-3.84l-1.25 1.36-1.21-1.36H8.25v4.38h4.17l1.31-1.45 1.28 1.46h2.1v-1.49h1.47c.57 0 1.6-.02 1.6-1.55 0-1.1-.78-1.35-1.32-1.35z" id="Fill-12" fill="#0077A6"/>
                    <path d="M23.2 10.39h-1.36v-1h1.37c.45 0 .6.3.6.5 0 .3-.16.5-.6.5m.94.45c.6-.3.75-.68.75-1.21 0-.94-.77-1.17-1.31-1.17h-2.84v4.38h1.09v-1.55h1.43c.38 0 .53.37.54.75l.03.8h1.06l-.04-.9c0-.7-.2-1.04-.71-1.1" id="Fill-14" fill="#0077A6"/>
                    <path id="Fill-16" fill="#0077A6" d="M21.18 5.27h1.1V.87h-1.1z"/>
                    <path id="Fill-18" fill="#0077A6" d="M12.23.88h3.58v.95h-2.49v.82h2.42v.83h-2.42v.87h2.49v.92h-3.58z"/>
                    <path d="M18.91 2.82h-1.36v-1h1.37c.45 0 .6.3.6.5 0 .3-.16.5-.61.5m.95.45c.6-.3.75-.68.75-1.21 0-.94-.77-1.18-1.31-1.18h-2.85v4.39h1.1V3.72h1.43c.38 0 .53.37.54.74l.03.8h1.06l-.04-.9c0-.7-.2-1.03-.71-1.09" id="Fill-19" fill="#0077A6"/>
                    <path d="M2 3.34l.66-1.53.67 1.53H2zM9.7.88L8.38 3.82 7.03.88H5.3V5.1L3.41.88H1.96L0 5.27h1.15l.43-.98h2.18l.44.98h2.2V2l1.46 3.26h1l1.49-3.2v3.2h1.1V.88H9.7z" id="Fill-20" fill="#0077A6"/>
                    <path d="M26.85 3.34l.65-1.53.68 1.53h-1.33zM33.56.88v3.04L31.72.88H30.1V5L28.24.88h-1.45l-1.5 3.4s-.64 0-.7-.02c-.27-.05-.68-.23-.69-1v-.32c0-1.03.57-1.1 1.3-1.1h.67V.87h-1.42c-.5 0-1.58.37-1.62 2.17-.03 1.22.51 2.22 1.72 2.22H26l.42-.98h2.19l.43.98h2.16V2.06l1.97 3.2h1.49V.89h-1.1z" id="Fill-21" fill="#0077A6"/>
                  </g>
                </g>
              </g>
              <g id="icon/payment/mastercard" transform="translate(78.22)">
                <g id="mastercard" fill-rule="nonzero">
                  <g id="Group" transform="matrix(1 0 0 -1 1.15 21.56)" fill="#FFFFFF">
                    <path d="M26.21.54V.48h.08l.01.03v.02h-.09zm.05.03a.1.1 0 00.07-.01.06.06 0 00.02-.05c0-.02 0-.03-.02-.04a.09.09 0 00-.05-.02l.07-.08h-.05l-.07.07h-.02V.37h-.04v.2h.1zM26.25.3l.07.01a.18.18 0 01.1.1.17.17 0 01-.17.23l-.07-.01a.17.17 0 01-.1-.1.16.16 0 010-.06V.4l.04-.05a.18.18 0 01.13-.05m0 .4a.23.23 0 00.21-.14.2.2 0 00.02-.09.2.2 0 00-.02-.09.23.23 0 00-.21-.13.23.23 0 00-.21.13.2.2 0 00-.02.09c0 .03 0 .06.02.09a.22.22 0 00.12.11c.03.02.06.02.09.02m-21.28.8c0 .39.27.71.7.71.4 0 .68-.3.68-.71S6.08.77 5.67.77c-.43 0-.7.32-.7.72m1.85 0V2.6h-.5v-.27c-.15.2-.4.33-.72.33-.63 0-1.14-.5-1.14-1.17C4.46.8 4.96.3 5.6.3c.33 0 .57.13.73.33V.37h.5v1.12zm16.76 0c0 .39.26.71.69.71.4 0 .69-.3.69-.71s-.28-.72-.7-.72c-.42 0-.68.32-.68.72m1.84 0V3.5h-.5V2.33c-.15.2-.39.33-.71.33-.64 0-1.14-.5-1.14-1.17 0-.69.5-1.18 1.14-1.18.32 0 .56.13.72.33V.37h.5v1.12zm-12.44.73c.32 0 .52-.2.57-.54h-1.18c.05.32.25.54.6.54m.02.44c-.67 0-1.14-.48-1.14-1.17 0-.72.49-1.18 1.17-1.18.34 0 .66.09.93.31l-.24.37a1.1 1.1 0 00-.66-.24c-.32 0-.61.15-.68.55h1.69v.19c0 .7-.44 1.17-1.07 1.17m5.98-1.17c0 .39.27.71.7.71.4 0 .68-.3.68-.71s-.28-.72-.69-.72c-.42 0-.69.32-.69.72m1.85 0V2.6h-.5v-.27c-.15.2-.4.33-.72.33-.64 0-1.14-.5-1.14-1.17 0-.69.5-1.18 1.14-1.18.33 0 .57.13.72.33V.37h.5v1.12zm-4.65 0C16.17.8 16.65.3 17.4.3c.34 0 .57.08.82.27l-.24.4c-.19-.14-.38-.21-.6-.21-.4 0-.68.29-.68.72s.29.7.68.71c.22 0 .41-.07.6-.2l.24.4c-.25.18-.48.26-.82.26-.74 0-1.22-.5-1.22-1.17m6.4 1.17a.68.68 0 01-.6-.33v.27h-.5V.37h.5v1.25c0 .37.16.58.49.58.1 0 .2-.02.3-.06l.16.46c-.11.04-.25.06-.36.06M9.27 2.42c-.24.16-.56.24-.93.24-.57 0-.95-.27-.95-.72 0-.36.28-.59.8-.66l.22-.03c.28-.04.4-.1.4-.23 0-.18-.18-.27-.51-.27-.35 0-.6.1-.76.23L7.3.6c.27-.2.62-.29.99-.29.66 0 1.04.3 1.04.73 0 .4-.3.6-.8.67l-.23.03c-.21.03-.39.07-.39.22 0 .17.17.26.44.26.29 0 .57-.1.7-.19l.22.4zm6.4.24a.67.67 0 01-.6-.33v.27h-.5V.37h.5v1.25c0 .37.17.58.5.58.1 0 .2-.02.3-.06l.15.46c-.1.04-.25.06-.35.06m-4.23-.06h-.81v.68h-.5V2.6h-.47v-.44h.47V1.14c0-.52.2-.83.79-.83.21 0 .46.07.62.17L11.4.9a.93.93 0 00-.44-.13c-.25 0-.33.15-.33.38v1h.8v.45zM4.03.37v1.4c0 .53-.35.88-.9.89-.3 0-.6-.09-.8-.4-.16.25-.4.4-.76.4a.76.76 0 01-.66-.33v.27H.4V.37h.5V1.6c0 .38.22.6.56.6.33 0 .5-.22.5-.6V.37h.5V1.6c0 .38.22.6.55.6.34 0 .5-.22.5-.6V.37h.5z" id="Shape"/>
                  </g>
                  <path id="Path" fill="#FF5F00" d="M17.8 15.16h-7.52V1.93h7.51z"/>
                  <g id="Group" transform="matrix(1 0 0 -1 .12 16.97)" fill="#EB001B">
                    <path d="M10.64 8.42a8.34 8.34 0 003.28 6.62 8.66 8.66 0 01-5.31 1.8A8.5 8.5 0 01.02 8.42 8.5 8.5 0 018.61.01c2 0 3.85.67 5.3 1.8a8.34 8.34 0 00-3.27 6.61" id="Path"/>
                  </g>
                  <g id="Group" transform="matrix(1 0 0 -1 14.01 16.97)" fill="#F79E1B">
                    <path d="M13.91 8.42A8.5 8.5 0 005.33.01c-2 0-3.85.67-5.31 1.8a8.34 8.34 0 010 13.23 8.67 8.67 0 005.3 1.8 8.5 8.5 0 008.6-8.42" id="Path"/>
                  </g>
                </g>
              </g>
              <g id="icon/payment/discover" transform="translate(0 5.33)">
                <g id="discover" fill-rule="nonzero">
                  <path d="M32.55 5c0-1.25-.42-2.49-1.27-3.42a4.2 4.2 0 00-3.14-1.4h-.02c-2.47 0-4.42 2.14-4.42 4.84 0 2.67 1.98 4.84 4.42 4.84 2.47 0 4.43-2.14 4.43-4.84v-.03z" id="Shape" fill="#F26E21"/>
                  <g id="Group" fill="#FFFFFF">
                    <path d="M22.87 7.06c-.66.73-1.27 1.01-1.93 1.03-1.6-.02-2.78-1.32-2.78-3.17 0-.93.32-1.69.83-2.34a2.5 2.5 0 011.81-.82c.77 0 1.36.28 2.04 1.02V.65A4 4 0 0020.8.09c-1.08.08-2.1.56-2.89 1.31a4.97 4.97 0 00-1.54 3.62c0 2.7 1.96 4.74 4.43 4.74h.08a4.5 4.5 0 002.05-.56l-.06-2.14c-.03.04.03.06 0 .1v-.1zM38.14 1.42L36.22 6.6 34 .46h-1.79l3.5 9.4h.93L40.3.46h-1.79zM40.98 4.55v5.03H45.67v-1.5h-2.98v-2.5h2.9V3.99h-2.9V2.04h2.98V.46h-4.69zM2.49.46H.1v9.12H2.5c1.28 0 2.21-.38 2.98-1.03A4.78 4.78 0 007 5.02C7 2.32 5.21.46 2.5.46zm1.96 6.88a3.1 3.1 0 01-2.22.75h-.5V2.04h.42c1.02 0 1.7.19 2.21.74.6.56.94 1.4.94 2.24.08.83-.26 1.76-.85 2.32z" id="Shape"/>
                    <path id="Rectangle-path" d="M7.77.46h1.62v9.12H7.77z"/>
                    <path d="M13.48 4c-1.03-.38-1.28-.66-1.28-1.12 0-.56.5-1.03 1.19-1.03.51 0 .94.2 1.36.75l.85-1.21A3.54 3.54 0 0013.14.37a2.6 2.6 0 00-2.65 2.6c0 1.3.52 1.86 2.05 2.51.68.28.94.37 1.1.56.35.19.52.56.52.93 0 .75-.51 1.3-1.28 1.3s-1.45-.46-1.79-1.2l-1.02 1.11c.77 1.21 1.7 1.77 2.9 1.77 1.7 0 2.89-1.21 2.89-2.98 0-1.58-.51-2.23-2.38-2.98zM50.27 5.76c1.28-.28 1.96-1.2 1.96-2.6 0-1.68-1.11-2.7-2.98-2.7h-2.47v9.12h1.61V5.95h.26l2.3 3.63h1.96l-2.64-3.82zM48.9 4.65h-.5v-2.8h.5c1.03 0 1.62.47 1.62 1.4 0 .93-.6 1.4-1.62 1.4z" id="Shape"/>
                  </g>
                </g>
              </g>
              <g id="icon/payment/visa" transform="translate(196.78 5.33)">
                <g fill-rule="nonzero" id="visa">
                  <path id="Fill-4" fill="#FFFFFF" d="M14.68 11.46h-2.73L13.65.28h2.75z"/>
                  <path d="M9.64.28l-2.6 7.69-.31-1.66-.92-5.03s-.12-1-1.3-1H.19L.14.47s1.32.29 2.87 1.27l2.37 9.72h2.86L12.59.28H9.64z" id="Fill-6" fill="#FFFFFF"/>
                  <path d="M28.16 7.5l1.44-4.18.81 4.18h-2.25zm3.02 3.96h2.51L31.49.28h-2.2c-1 0-1.26.83-1.26.83l-4.08 10.35h2.86l.57-1.66h3.48l.32 1.66z" id="Fill-8" fill="#FFFFFF"/>
                  <path d="M24.17 2.97l.39-2.4s-1.2-.5-2.47-.5c-1.35 0-4.58.64-4.58 3.7 0 2.9 3.79 2.93 3.79 4.45s-3.4 1.25-4.52.29l-.4 2.51s1.21.63 3.08.63 4.69-1.03 4.69-3.83c0-2.9-3.82-3.18-3.82-4.44 0-1.26 2.66-1.1 3.84-.41" id="Fill-10" fill="#FFFFFF"/>
                  <path d="M6.73 6.31L5.8 1.28s-.12-1-1.3-1H.19L.14.47S2.22.92 4.2 2.63a8.77 8.77 0 012.53 3.68" id="Fill-12" fill="#FFA61F"/>
                </g>
              </g>
            </g>
            <g id="Group" fill="#ACA3E2">
              <g id="icon/twitter" transform="translate(63 1)">
                <path d="M15.13.37l-.1.04-1.22.45-.03-.02a4.13 4.13 0 00-6.5 2.42l-.03.1-.04.22v.03H7.2A7.67 7.67 0 012.9.99a1.12 1.12 0 00-1.85.22 4.3 4.3 0 00-.53 2.31l.02.22c.03.3.09.58.18.85l.05.13-.03.03c-.18.23-.27.52-.25.81.05 1 .36 1.86.92 2.56l.12.14.02.03-.01.1c-.02.19 0 .38.07.56l.08.2c.26.6.6 1.1 1.03 1.5l.02.02-.2.03c-.42.08-.87.1-1.34.07-.53-.03-1 .3-1.16.81-.15.5.04 1.06.48 1.34a9.8 9.8 0 0010.5-.04 9.64 9.64 0 003.85-4.9l.1-.3c.3-.91.47-1.86.52-2.84v-.1l.2-.22.82-.8-.07.06a1.17 1.17 0 00.33-1.61l-.08-.12-.07-.08-.08-.07-.05-.04c.14-.42.03-.88-.27-1.19-.3-.3-.71-.4-1.1-.3zm-1.95 1.74l.2.14.47.06.06-.01 1.1-.42-.04.08-.69 1.1 1-.04-.55.54-.31.33c-.11.12-.2.27-.24.4l-.03.1v.1a9.25 9.25 0 01-1.12 4.28 8.53 8.53 0 01-2.74 2.96 8.1 8.1 0 01-4.46 1.32h-.3A8.6 8.6 0 012 12.17l-.04-.02h.16a6.47 6.47 0 002.5-.7l1.36-.69-1.43-.56-.15-.07a2.82 2.82 0 01-1.43-1.52l-.02-.03.5-.42-.6-.53a2.85 2.85 0 01-.36-.37l-.1-.13a2.97 2.97 0 01-.49-1.27l-.02-.14 1.01.06-.63-1.11a2.8 2.8 0 01-.37-1.24v-.17c0-.34.07-.69.21-1.04l.03-.07.13.14a8.87 8.87 0 005.5 2.8l.74.1.03-.76c.01-.43.03-.64.08-.85A2.8 2.8 0 0113.05 2l.13.1z" fill-rule="nonzero" transform="translate(0 .85)" id="Path"/>
              </g>
              <g id="icon/facebook" transform="translate(31)">
                <g fill-rule="nonzero" transform="translate(4.25)" id="facebook">
                  <path d="M6.44 0h-.18C3.82.08 2.21 1.9 2.21 4.56v1.02H1C.46 5.58 0 6.06 0 6.64v2.65c.05.53.48.95 1.02.95H2.2v5.7c0 .58.45 1.06 1.01 1.06h2.6c.51-.06.91-.51.91-1.06v-5.7h1.51c.57 0 1.02-.47 1.02-1.05V6.64c0-.28-.1-.54-.29-.74l-.07-.07a1 1 0 00-.66-.25h-1.5v-.75c0-.42-.07-.35.31-.35h1.28c.57 0 1.02-.47 1.02-1.05V1.06C9.35.48 8.9 0 8.33 0h-1.9zm0 1.48H7.9v1.53h-.86C5.82 3 5.3 3.64 5.3 4.83v2.23h2.53v1.7H5.3v6.76H3.64V8.77h-2.2V7.06h2.2v-2.5c0-1.92 1.07-3.08 2.8-3.08z" id="Path"/>
                </g>
              </g>
            </g>
          </g>
        </g>
      </g>
    </g>
  </g>
</svg>