<?xml version="1.0" encoding="UTF-8"?>
<svg width="14px" height="28px" viewBox="0 0 14 28" version="1.1" xmlns="http://www.w3.org/2000/svg" xmlns:xlink="http://www.w3.org/1999/xlink">
    <title>Group</title>
    <defs>
        <path d="M6.99807161,11.4709274 L10.8979772,13.9412842 C11.184624,14.1233938 11.5391609,13.8541883 11.4637275,13.5137225 L10.4302903,8.8580501 L13.8700522,5.73051509 C14.1189824,5.5008986 13.9907456,5.06541904 13.6512954,5.0337478 L9.1177495,4.62993948 L7.34506514,0.243472662 C7.2168284,-0.081157554 6.77931482,-0.081157554 6.65107808,0.243472662 L4.87839372,4.62993948 L0.344847779,5.0337478 C0.0129409214,5.06541904 -0.122839157,5.5008986 0.133634324,5.73051509 L3.5733963,8.8580501 L2.53995904,13.5137225 C2.46452567,13.8541883 2.81906254,14.1233938 3.10570937,13.9412842 L6.99807161,11.4709274 Z" id="path-1"/>
    </defs>
    <g id="Landing-page" stroke="none" stroke-width="1" fill="none" fill-rule="evenodd">
        <g id="37_Landing-page" transform="translate(-124.000000, -7841.000000)">
            <g id="longread" transform="translate(0.000000, 6532.000000)">
                <g transform="translate(14.000000, 60.000000)" id="1">
                    <g transform="translate(1.000000, 238.000000)">
                        <g id="rate-1" transform="translate(0.000000, 937.000000)">
                            <g id="rate-copy-2" transform="translate(25.000000, 63.000000)">
                                <g id="stars" transform="translate(12.000000, 11.000000)">
                                    <g id="Group" transform="translate(72.000000, 0.000000)">
                                        <path d="M6.99807161,25.4709274 L10.8979772,27.9412842 C11.184624,28.1233938 11.5391609,27.8541883 11.4637275,27.5137225 L10.4302903,22.8580501 L13.8700522,19.7305151 C14.1189824,19.5008986 13.9907456,19.065419 13.6512954,19.0337478 L9.1177495,18.6299395 L7.34506514,14.2434727 C7.2168284,13.9188424 6.77931482,13.9188424 6.65107808,14.2434727 L4.87839372,18.6299395 L0.344847779,19.0337478 C0.0129409214,19.065419 -0.122839157,19.5008986 0.133634324,19.7305151 L3.5733963,22.8580501 L2.53995904,27.5137225 C2.46452567,27.8541883 2.81906254,28.1233938 3.10570937,27.9412842 L6.99807161,25.4709274 Z" id="🔹Icon-Color-Copy-4" fill="#FFFFFF"/>
                                        <mask id="mask-2" fill="white">
                                            <use xlink:href="#path-1"/>
                                        </mask>
                                        <path stroke="#FFECBE" stroke-width="1.5" d="M6.76195691,1.97078188 L8.65767707,5.34192954 L12.149221,5.6529255 L9.61774999,8.65854325 L10.4048845,12.2046128 L6.93987855,10.6195608 L3.99238134,12.4902422 L4.35448556,8.55457413 L1.69655015,6.13789935 L5.42767032,5.27244348 L6.76195691,1.97078188 Z"/>
                                    </g>
                                </g>
                            </g>
                        </g>
                    </g>
                </g>
            </g>
        </g>
    </g>
</svg>