<svg width="324" height="36" xmlns="http://www.w3.org/2000/svg" xmlns:xlink="http://www.w3.org/1999/xlink">
  <defs>
    <path id="a" d="M.02.1h62.74v20.96H.02z"/>
  </defs>
  <g fill="none" fill-rule="evenodd">
    <path d="M296.9 5.96c.39 0 .74.04 1.02.13l.94.24.5.2-.36 2.41c-.8-.43-1.39-.59-2.02-.59-1.67 0-2.85 1.71-2.85 4.14 0 1.67.8 2.7 2.1 2.7.55 0 1.16-.19 1.91-.58l-.38 2.53c-.84.25-1.37.33-2 .33-2.42 0-3.93-1.84-3.93-4.77 0-3.96 2.08-6.74 5.07-6.74zm-18.32.96l-.27 1.33h1.16l-.32 2.18H278l-.59 3.76-.04.36c0 .47.25.68.78.68.26 0 .45-.02.6-.09l-.32 2c-.6.2-1.1.3-1.6.3-1.15 0-1.78-.68-1.78-1.97 0-.24.02-.53.06-.82l.15-.87.1-.72.97-6.14h2.25zm4.76 1.1c1.85 0 3.03 1.29 3.03 3.29 0 .65-.08 1.3-.28 2.22h-4.48l-.02.29c0 1.06.67 1.59 1.97 1.59.8 0 1.53-.18 2.35-.57l-.35 2.22c-.77.25-1.5.37-2.32.37-2.5 0-3.83-1.39-3.83-4.04 0-3.1 1.67-5.37 3.93-5.37zm-10.39.05c.51 0 1.39.08 1.98.18l-.33 2.08c-.57-.08-1.16-.14-1.6-.14-.74 0-1.1.24-1.1.73 0 .43.1.53 1.03.98 1.14.55 1.6 1.29 1.6 2.5 0 2.05-1.1 3-3.47 3-.28 0-.71-.03-1.24-.07-.27-.02-.45-.06-.6-.08l-.4-.09-.1-.02.3-2.08c.74.27 1.35.37 2.02.37.88 0 1.28-.27 1.28-.82 0-.4-.16-.55-1.06-1-1.18-.59-1.7-1.36-1.7-2.5-.03-1.68.85-3.04 3.4-3.04zm29.78-.05c1.93 0 2.95.92 2.95 2.64 0 .44-.04.77-.18 1.8l-.47 3.17-.06.57-.07.45-.04.31.02.29h-1.87l.04-.94c-.57.75-1.32 1.08-2.36 1.08-1.22 0-2.06-1-2.06-2.45 0-2.2 1.47-3.47 3.95-3.47.25 0 .6.02.92.06.06-.3.08-.43.08-.59 0-.59-.39-.81-1.44-.81-.64 0-1.37.1-1.88.26l-.32.08-.2.06.3-2.02a8.65 8.65 0 012.69-.49zm-36.9.02c1.93 0 2.95.92 2.95 2.64 0 .45-.04.77-.18 1.8l-.45 3.2-.08.57-.06.44-.04.33-.02.23h-1.88l.04-.94c-.57.75-1.32 1.08-2.36 1.08-1.22 0-2.06-1-2.06-2.45 0-2.2 1.47-3.47 3.95-3.47.27 0 .6.02.92.06.06-.3.08-.43.08-.59 0-.59-.39-.81-1.44-.81-.64 0-1.37.1-1.88.26l-.28.1-.2.06.3-2.02a8.65 8.65 0 012.69-.49zM319 6.17l-1.7 11.08h-2.13l.1-.88c-.61.7-1.26 1-2.08 1-1.65 0-2.73-1.5-2.73-3.74 0-3 1.67-5.52 3.67-5.52.88 0 1.53.38 2.16 1.22l.49-3.16H319zm.95 8.36c.76 0 1.35.63 1.35 1.41 0 .77-.6 1.4-1.35 1.4-.73.03-1.34-.6-1.34-1.4 0-.78.61-1.4 1.34-1.4zm-28.28-6.36c.08 0 .16 0 .22.02l.08.02a8.92 8.92 0 00-.85 2.6h-.16c-1.08 0-1.29.95-2.1 6.46h-2.26l1.38-9h2.04l-.2 1.37c.69-1.09 1.12-1.47 1.85-1.47zm19.28 0c.08 0 .17 0 .23.02l.08.02a9.57 9.57 0 00-.86 2.6h-.16c-1.08 0-1.28.95-2.1 6.46h-2.26l1.39-9h2.03l-.2 1.37c.7-1.09 1.12-1.47 1.85-1.47zm-54.47-1.98l.08 6.85 2.2-6.85h3.5l-1.75 11.06h-2.24l1.29-8.51-2.9 8.5h-1.52l-.19-8.44-1.36 8.45h-2.1l1.75-11.06h3.24zm63.47 8.69c-.57 0-1.01.49-1.01 1.08 0 .6.44 1.08 1.01 1.08.57 0 1.02-.49 1.02-1.08 0-.6-.47-1.08-1.02-1.08zm.04.45c.1 0 .23 0 .31.06.1.06.14.18.14.3 0 .15-.08.27-.2.31l.22.55h-.3l-.19-.49h-.2v.51h-.28v-1.24h.5zm-.06.24h-.14l-.02.3h.16l.17-.01c.04-.02.06-.08.06-.15 0-.04-.02-.1-.06-.12-.04-.02-.13-.02-.17-.02zm-54.12-2.36c-1.29 0-1.92.47-1.92 1.36 0 .55.33.92.82.92.9 0 1.57-.92 1.6-2.24-.24-.02-.34-.04-.5-.04zm36.94 0c-1.29 0-1.94.47-1.94 1.36 0 .55.33.92.82.92.91 0 1.58-.92 1.63-2.24-.23-.02-.35-.04-.51-.04zm11.83-2.88c-1.02 0-1.75 1.26-1.75 3.02 0 1.18.38 1.8 1.16 1.8 1.06 0 1.79-1.25 1.79-3.05 0-1.14-.43-1.77-1.2-1.77zm-31.32-.25c-.71 0-1.22.58-1.43 1.62h2.47c.02-.19.02-.35.02-.45 0-.74-.39-1.17-1.06-1.17z" fill="#BAB8CD"/>
    <path d="M300.73 21.98c2.1 0 3.22 1.77 3.22 4.04 0 3.75-1.7 5.38-4 5.38-2.27 0-3.21-1.85-3.21-4.12 0-3.16 1.57-5.3 3.99-5.3zm-45.02-2.27c.97 0 1.91.15 2.44.51l-.55 2.23c-.4-.29-.98-.51-1.75-.51-.86 0-1.53.18-1.53 1.08 0 1.59 3.1 1 3.1 4.42 0 3.13-2.04 3.94-3.9 3.94-.8 0-1.76-.26-2.46-.59l.51-2.28c.43.38 1.27.65 1.98.65.67 0 1.69-.19 1.69-1.35 0-1.81-3.1-1.14-3.1-4.32 0-2.92 1.82-3.78 3.57-3.78zm60.4 2.25c1.73 0 2.83 1.26 2.83 3.28 0 .65-.09 1.3-.27 2.23h-4.17l-.02.28c0 1.04.63 1.57 1.85 1.57.75 0 1.42-.18 2.18-.57l-.35 2.24c-.73.25-1.42.37-2.16.37-2.34 0-3.58-1.39-3.58-4.04 0-3.08 1.57-5.36 3.69-5.36zm-29.35 0c1.73 0 2.85 1.26 2.85 3.28 0 .65-.08 1.3-.26 2.23h-4.18l-.02.28c0 1.04.63 1.57 1.86 1.57.75 0 1.42-.18 2.17-.57l-.34 2.24c-.71.25-1.4.37-2.16.37-2.36 0-3.58-1.39-3.58-4.04 0-3.08 1.56-5.36 3.66-5.36zm-24.98 0c1.73 0 2.83 1.26 2.83 3.28 0 .65-.09 1.3-.27 2.23h-4.17l-.02.28c0 1.04.63 1.57 1.85 1.57.75 0 1.42-.18 2.18-.57l-.35 2.24c-.71.25-1.4.37-2.16.37-2.34 0-3.56-1.39-3.56-4.04 0-3.08 1.57-5.36 3.67-5.36zm7.43.04c.53 0 1.34.22 1.97.59l-.47 2.14a2.5 2.5 0 00-1.4-.49c-1.12 0-1.93 1.04-1.93 2.88 0 1.06.59 1.94 1.5 1.94.55 0 .94-.13 1.4-.4l-.3 2.33a4.3 4.3 0 01-1.87.35c-1.83 0-2.97-1.83-2.97-4.08 0-2.94 1.64-5.26 4.07-5.26zm25.92-2.16c.37 0 .67.04.94.12l.85.24c.29.08.35.1.53.2l-.34 2.41a3.6 3.6 0 00-1.88-.59c-1.57 0-2.67 1.72-2.67 4.14 0 1.68.74 2.7 1.96 2.7.53 0 1.1-.19 1.8-.57l-.37 2.52c-.78.25-1.29.33-1.88.33-2.26 0-3.68-1.83-3.68-4.77 0-3.96 1.95-6.73 4.74-6.73zm-20.83 2.3l-.61 4.18c-.06.45-.14.9-.14 1.37 0 .53.24 1.06.85 1.02.92 0 1.47-1.12 1.63-2.45l.63-4.12h2.18l-1 6.59c-.1.78-.2 1.53-.26 2.33h-2.02l.16-1.45h-.02c-.63.98-1.28 1.65-2.44 1.65-1.26 0-1.95-1.35-1.95-3.08 0-.61.04-.94.16-1.88l.57-4.16h2.26zm38.28-2.16L311 31.04h-2l.11-.88c-.57.7-1.18 1-1.95 1-1.53 0-2.55-1.5-2.55-3.74 0-3 1.57-5.52 3.42-5.52.81 0 1.45.38 2.02 1.24l.47-3.16h2.07zm-29.26 2.04c.08 0 .16 0 .22.02l.08.04a9.65 9.65 0 00-.79 2.61l-.16-.02c-1 0-1.2.94-1.96 6.45h-2.1l1.29-9h1.9l-.21 1.37c.65-1.08 1.04-1.47 1.73-1.47zm37.43 7.12v.32h-.5v1.5h-.34v-1.5h-.49v-.32h1.33zm.69 0l.29 1.43h.02l.28-1.43h.49v1.81h-.33v-1.5l-.3 1.5h-.33l-.3-1.5v1.5h-.33v-1.81h.51zm-20.83-4.96c-1.02 0-1.67 1.63-1.67 3.06 0 1.2.43 2.02 1.16 2 1 0 1.63-1.2 1.63-3.24 0-.94-.29-1.82-1.12-1.82zm7.82-.06c-.96 0-1.63 1.24-1.63 3.02 0 1.18.37 1.77 1.08 1.77 1 0 1.67-1.24 1.67-3.04 0-1.14-.39-1.75-1.12-1.75zm-46.76-.1c-.67 0-1.14.57-1.34 1.6h2.32l.02-.44c0-.73-.37-1.16-1-1.16zm25.01 0c-.67 0-1.14.57-1.34 1.6h2.32c.02-.17.02-.34.02-.44 0-.73-.37-1.16-1-1.16zm29.32 0c-.67 0-1.14.57-1.34 1.6h2.32l.02-.44c0-.73-.37-1.16-1-1.16z" fill="#DEDDE9"/>
    <g fill-rule="nonzero">
      <path d="M23.12 9.87A45.99 45.99 0 0112.08 5.2a.58.58 0 00-.6 0A44.73 44.73 0 01.46 9.87a.58.58 0 00-.43.56v5.91c0 6.09 2.82 10.11 5.18 12.42 2.54 2.49 5.5 3.86 6.58 3.86s4.04-1.37 6.59-3.86a16.97 16.97 0 005.18-12.42v-5.91a.58.58 0 00-.43-.56z" fill="#DEDDE9"/>
      <g fill="#BAB8CD">
        <path d="M91.58 22.36h3.57c2.25 0 3.2-.77 3.69-3.06l1.1-5.12c.15-.71-.19-1.3-1.05-1.3h-2.75c-2.48 0-3.27 1.2-3.76 3.27-.5 2.09.14 3.72 2.42 3.72h1.85c-.17.8-.72.95-1.54.95h-3.2l-.33 1.54zm3.87-4c-1.09 0-1.15-.74-.95-1.95.18-1.11.6-2.03 1.84-2.03h1c.37 0 .45.2.39.5l-.75 3.48h-1.53zM85.98 19.87h2.08l1-4.61c.17-.72.65-.88 1.26-.88h.66c.64 0 1.28-.24 1.28-.94 0-.17-.03-.43-.17-.66-.12.07-.4.1-.7.1h-1.42c-1.4 0-2.6.57-3 2.38l-.99 4.6zM52.24 11.85c.89 0 1.44-.45 1.44-1.02 0-.19-.04-.4-.13-.59 0 0-.26.1-.9.1h-1.18c-1.54 0-2.7.6-3.11 2.53h-1l-.31 1.4h1.04l-1.21 5.6h2.06l1.25-5.6h1.55l.32-1.4h-1.62c.15-.8.64-1.02 1.24-1.02h.56zM80.85 18.38c-.4 0-.69-.23-.69-.63 0-.56.38-.88.9-.88h2.19l-.21 1c-.07.33-.3.51-.6.51h-1.59zm-.52 1.49h2.81c1.04 0 1.52-.48 1.7-1.3l.74-3.68c.02-.13.04-.25.04-.37 0-.94-.78-1.65-1.82-1.65h-4.25l-.3 1.47h3.71c.4 0 .63.16.63.46l-.01.12-.1.55h-2.82c-1.74 0-2.55.8-2.62 2.28-.06 1.42.72 2.12 2.3 2.12zM69.33 19.87h2.08l1.2-5.47h1.4c1.18 0 1.4.32 1.13 1.5l-.9 3.97h2.09l1-4.5c.32-1.5-.71-2.5-2.44-2.5h-1.93l.44-2.26h-2.1l-1.97 9.26zM65.07 19.87h2.94l.37-1.81h-2.4c-1.96 0-3.06-.44-2.68-2.9.33-2.12 1.23-2.74 3.38-2.74h1.54c.92 0 1.5-.57 1.5-1.24 0-.22-.05-.44-.16-.66 0 0-.23.1-.84.1h-2.05c-3.34 0-5.08 1.34-5.56 4.4-.5 3.14 1.1 4.85 3.96 4.85M54.6 19.87h3.92l.34-1.51h-3.4c-.9 0-1.27-.25-1.22-.83l.04-.5h3.35c1.78 0 2.2-1.24 2.2-2.2 0-1.54-1.23-2.06-3.4-2.06-2.5 0-3.5.66-4.06 3.19-.54 2.42-.12 3.9 2.24 3.9zm.02-4.26c.2-1.03.77-1.38 1.74-1.38.7 0 1.32.2 1.32.78 0 .4-.27.6-.52.6h-2.54zM103.05 19.87h3.91l.34-1.51h-3.4c-.9 0-1.27-.25-1.21-.83l.04-.5h3.34c1.78 0 2.2-1.24 2.2-2.2 0-1.54-1.23-2.06-3.4-2.06-2.5 0-3.5.66-4.05 3.19-.54 2.42-.12 3.9 2.23 3.9zm.02-4.26c.2-1.03.77-1.38 1.73-1.38.7 0 1.33.2 1.33.78 0 .4-.28.6-.53.6h-2.53zM41.2 18.38c-.4 0-.7-.23-.7-.63 0-.56.39-.88.9-.88h2.2l-.21 1c-.07.33-.3.51-.6.51H41.2zm-.52 1.49h2.81c1.03 0 1.52-.48 1.69-1.3l.74-3.68c.03-.13.04-.25.04-.37 0-.94-.77-1.65-1.82-1.65H39.9l-.28 1.47h3.7c.39 0 .63.16.63.46 0 .03 0 .07-.02.12l-.1.55H41c-1.74 0-2.55.8-2.62 2.28-.07 1.42.72 2.12 2.29 2.12zM28.99 19.87h4.72c2.18 0 3.62-.93 3.71-2.9.07-1.5-.64-2.65-2.5-2.65h-1.77c-.71 0-.99-.32-.96-.82.04-.68.48-1.08 1.45-1.08h3.14c.94 0 1.53-.58 1.53-1.3 0-.2-.04-.4-.13-.6 0 0-.26.1-.9.1h-3.64c-2.1 0-3.55.99-3.65 2.87-.09 1.77 1.02 2.58 2.55 2.58h1.61c.74 0 1.09.26 1.05.85-.05.8-.58 1.14-1.5 1.14h-4.35l-.36 1.8z"/>
      </g>
      <path d="M28.5 29.92l.5-.88c.42.32.85.55 1.28.7.44.14.92.22 1.44.22.62 0 1.1-.11 1.43-.33.33-.23.5-.54.5-.94a.84.84 0 00-.26-.62c-.17-.17-.37-.3-.62-.4l-1.04-.34c-.57-.17-1.04-.33-1.4-.49a2.46 2.46 0 01-.91-.7c-.26-.3-.38-.7-.38-1.2 0-.47.13-.9.39-1.25.26-.36.62-.64 1.1-.83a4.92 4.92 0 013.29-.02c.5.17.93.42 1.27.74l-.48.88a3.7 3.7 0 00-2.45-.92c-.6 0-1.08.12-1.41.35-.34.23-.5.56-.5.97 0 .28.09.51.26.7.18.18.4.32.67.42.26.1.62.23 1.08.36.56.16 1 .32 1.35.47.34.15.63.37.87.65.25.29.37.66.37 1.13 0 .72-.28 1.3-.84 1.71-.56.42-1.34.63-2.32.63a4.98 4.98 0 01-3.19-1zm11.73-4.22c.43.44.64 1.08.64 1.92 0 .18 0 .38-.03.58h-4.02c0 .58.15 1.02.44 1.33.29.32.7.47 1.24.47.66 0 1.26-.2 1.8-.62l.3.82c-.25.22-.56.39-.96.52-.4.13-.8.2-1.2.2-.57 0-1.05-.11-1.47-.34a2.35 2.35 0 01-.97-.96 3.61 3.61 0 01.01-3.08 2.64 2.64 0 012.47-1.5c.74 0 1.33.22 1.75.66zm-2.83.61c-.28.28-.46.69-.54 1.22h3c.02-.54-.1-.95-.34-1.22a1.26 1.26 0 00-1-.41c-.46 0-.83.14-1.12.41zm5.44 4.27a2.34 2.34 0 01-.95-.95 3.64 3.64 0 01.02-3.1c.24-.49.59-.85 1.03-1.1a3.46 3.46 0 012.75-.2c.37.13.68.3.94.54l-.42.83a2.69 2.69 0 00-1.65-.62c-.57 0-1.01.2-1.32.58-.31.38-.47.93-.47 1.62 0 .57.14 1.02.42 1.33.29.31.68.47 1.2.47.3 0 .57-.05.82-.15.26-.1.52-.26.78-.48l.3.85c-.25.22-.55.4-.9.53a3.24 3.24 0 01-2.55-.15zm9.6-5.4l-.45 5.66h-1.15l.07-.86c-.2.3-.45.53-.77.7-.33.16-.68.24-1.08.24-.63 0-1.1-.17-1.43-.5-.32-.34-.49-.84-.49-1.48 0-.14 0-.25.02-.32l.27-3.44h1.18l-.28 3.37-.01.21c0 .8.37 1.2 1.12 1.2.46 0 .83-.14 1.1-.42.27-.29.42-.68.46-1.18l.26-3.18h1.17zm4.77-.14v.98l-.77.09c-.53.05-.93.2-1.19.46-.26.25-.4.63-.44 1.12l-.26 3.15h-1.17l.45-5.65h1.13l-.07.87c.2-.31.46-.54.79-.7.32-.16.72-.26 1.18-.3l.35-.02zm4.53.66c.42.44.64 1.08.64 1.92 0 .18-.02.38-.04.58h-4.02c0 .58.15 1.02.44 1.33.29.32.7.47 1.24.47.66 0 1.26-.2 1.8-.62l.3.82c-.24.22-.56.39-.96.52-.4.13-.8.2-1.2.2-.56 0-1.05-.11-1.47-.34a2.35 2.35 0 01-.97-.96 3.61 3.61 0 01.01-3.08 2.64 2.64 0 012.47-1.5c.74 0 1.33.22 1.76.66zm-2.83.61c-.29.28-.47.69-.54 1.22h3c.01-.54-.1-.95-.34-1.22a1.26 1.26 0 00-1-.41c-.47 0-.84.14-1.12.41zm10.12-3.65l-.64 8.18h-1.17l.07-.85c-.18.3-.44.52-.76.68-.32.17-.67.25-1.06.25-.47 0-.9-.11-1.26-.33a2.2 2.2 0 01-.86-.95c-.2-.4-.3-.89-.3-1.44 0-.62.11-1.17.34-1.65a2.52 2.52 0 012.35-1.5c.42-.01.8.08 1.11.26.32.17.56.43.74.76l.26-3.4h1.18zm-2 6.74c.3-.39.44-.92.44-1.59 0-.6-.14-1.05-.4-1.36-.28-.32-.67-.47-1.17-.47-.52 0-.93.2-1.22.58-.3.38-.44.91-.44 1.59 0 .58.14 1.04.41 1.36.28.32.66.48 1.16.48.52 0 .92-.2 1.22-.59z" fill="#DEDDE9"/>
      <g fill="#FFF">
        <path d="M15.21 21.86h2.23l.28-1.39h-1.83c-1.47 0-2.3-.33-2.01-2.22.24-1.62.93-2.1 2.55-2.1h1.17c.69 0 1.13-.43 1.13-.94 0-.17-.04-.34-.12-.5 0 0-.17.06-.64.06h-1.55c-2.52 0-3.84 1.03-4.2 3.38-.38 2.4.83 3.7 3 3.7M5.07 21.86h3.57c1.66 0 2.74-.71 2.81-2.22.05-1.15-.48-2.03-1.89-2.03H8.22c-.54 0-.74-.25-.72-.62.03-.53.36-.83 1.1-.83h2.37c.71 0 1.16-.45 1.16-1 0-.15-.03-.3-.1-.46 0 0-.2.07-.69.07H8.6c-1.59 0-2.69.76-2.76 2.2-.07 1.36.78 1.98 1.93 1.98h1.22c.55 0 .82.2.8.66-.05.6-.44.87-1.14.87h-3.3l-.27 1.38z"/>
      </g>
    </g>
    <g>
      <path d="M196.31 23.7c-.09.7-.2 1.37-.34 2.01-.6-.19-1.29-.5-2.26-.44-.58.04-1.27.26-1.28.79-.01.58.94.92 1.47 1.18.96.45 1.99 1.06 2.07 2.3.06.95-.38 1.78-.89 2.26-1.34 1.26-4.3 1.4-6.34.59.13-.68.24-1.37.35-2.06.78.33 1.86.78 3.04.63.54-.06 1.2-.38 1.18-.93-.02-.67-1.28-1.07-1.91-1.42-.74-.4-1.58-1.08-1.62-2.11-.04-.69.23-1.33.59-1.77 1.04-1.3 3.73-1.76 5.94-1.03M172.23 10.57h2.7l-1.66 10.5h-2.71l1.67-10.5M165.22 12.65l-.42 2.64h.78c.76 0 1.48-.6 1.6-1.32.12-.72-.4-1.32-1.17-1.32h-.8zm-2.38-2.08h4.15c2.64 0 3.32 1.51 3.03 3.33a3.52 3.52 0 01-2.74 2.88l2.63 4.28h-3.4l-1.98-4.12-.65 4.12h-2.71l1.67-10.5zM184.6 10.57h2.71l-1.67 10.5h-2.7l1.66-10.5M189.37 10.57h5.95l-.37 2.28h-3.23l-.29 1.8h3.08l-.36 2.27h-3.08l-.3 1.86h3.24l-.36 2.28h-5.95l1.67-10.5M155.28 10.57h5.95l-.37 2.28h-3.24l-.28 1.8h3.08l-.36 2.27h-3.08l-.3 1.86h3.24l-.36 2.28h-5.95l1.67-10.5" fill="#BAB8CD"/>
      <g transform="translate(142.57)">
        <mask id="b" fill="#fff">
          <use xlink:href="#a"/>
        </mask>
        <path fill="#BAB8CD" mask="url(#b)" d="M34.41 10.57h6.02l-.36 2.28h-3.31l-.29 1.8h3l-.36 2.27h-3l-.66 4.14h-2.7l1.66-10.5M56.68 12.85h.56c2.08 0 2.88 1.46 2.66 2.86-.3 1.89-1.66 3.07-3.43 3.07h-.73l.94-5.93zm-2.34-2.28h3.53c4.2 0 5.16 3.17 4.83 5.25-.47 2.96-3.11 5.24-6.5 5.24h-3.53l1.67-10.5zM0 9.14h5.01l.6 7.62A549.15 549.15 0 0115.69.1h1.64A870.65 870.65 0 006.74 21.06H3.06l-.9-8.4c-.22-2.1-.64-2.98-2.16-3.2v-.32"/>
      </g>
      <path fill="#DEDDE9" d="M144.47 4.8l4.28 1.8.37 4.76h.31l3.88-6.56v-.33h-8.84v.33"/>
      <path d="M162.04 23.53h1.76l-.6 4.14c.5-.49 1.12-.79 1.8-.79 1.41 0 2.33 1.36 2.08 3.03-.24 1.67-1.57 3.02-2.98 3.02-.7 0-1.19-.3-1.53-.83l-.1.65h-1.75l1.32-9.22zm2.2 5.05c.64 0 1.08.6.97 1.32-.1.73-.71 1.32-1.36 1.32-.65 0-1.09-.59-.98-1.32.1-.73.71-1.32 1.36-1.32z" fill="#BAB8CD"/>
      <path fill="#BAB8CD" d="M167.23 27.03h2.1l.95 2.93 1.83-2.93h2.03l-5.34 8.55h-2.03l2.25-3.6-1.79-4.95M184.6 32.75l1.54-9.22h2.52l-1.54 9.22h-2.52M182.5 23.5c-.88 2.05-1.62 4.22-2.51 6.24l-.27-1.21v-.02l.04.22a5.68 5.68 0 00-.95-1.79l-.03-.04a7.39 7.39 0 00-.38-.45 9.2 9.2 0 00-2.13-1.7l2.24 7.98h2.7c1.28-3.11 2.65-6.12 3.93-9.22h-2.65"/>
      <path d="M177.73 23.5h-4.12v.2c2.37.47 5.37 2.46 6.15 5.03l-.88-4.3c-.12-.66-.59-.92-1.15-.92" fill="#DEDDE9"/>
      <path d="M200.99 26.06l-1.29 3.43h2.08l-.8-3.43zm3.82 6.72h-2.3c-.16-.44-.2-.99-.35-1.42H199l-.59 1.42h-2.65l3.44-7.9c.15-.35.43-.82.54-1.03.18-.32.85-.34 1.14-.34h1.9l2.02 9.27z" fill="#BAB8CD"/>
    </g>
  </g>
</svg>