<svg width="476" height="393" xmlns="http://www.w3.org/2000/svg" xmlns:xlink="http://www.w3.org/1999/xlink">
  <defs>
    <rect id="a" x="0" y="0" width="476" height="393" rx="1.5"/>
    <rect id="k" x="0" y="0" width="190.8" height="40.6" rx="10"/>
    <rect id="m" x="0" y="0" width="183.1" height="40.6" rx="10"/>
    <rect id="o" x="0" y="0" width="62.3" height="40.6" rx="10"/>
    <rect id="q" x="0" y="0" width="81.4" height="40.6" rx="10"/>
    <filter x="-9.2%" y="-30.8%" width="118.3%" height="186.2%" filterUnits="objectBoundingBox" id="j">
      <feOffset dy="5" in="SourceAlpha" result="shadowOffsetOuter1"/>
      <feGaussianBlur stdDeviation="5" in="shadowOffsetOuter1" result="shadowBlurOuter1"/>
      <feColorMatrix values="0 0 0 0 0 0 0 0 0 0 0 0 0 0 0 0 0 0 0.08 0" in="shadowBlurOuter1"/>
    </filter>
    <filter x="-9.6%" y="-30.8%" width="119.1%" height="186.2%" filterUnits="objectBoundingBox" id="l">
      <feOffset dy="5" in="SourceAlpha" result="shadowOffsetOuter1"/>
      <feGaussianBlur stdDeviation="5" in="shadowOffsetOuter1" result="shadowBlurOuter1"/>
      <feColorMatrix values="0 0 0 0 0 0 0 0 0 0 0 0 0 0 0 0 0 0 0.08 0" in="shadowBlurOuter1"/>
    </filter>
    <filter x="-28.1%" y="-30.8%" width="156.2%" height="186.2%" filterUnits="objectBoundingBox" id="n">
      <feOffset dy="5" in="SourceAlpha" result="shadowOffsetOuter1"/>
      <feGaussianBlur stdDeviation="5" in="shadowOffsetOuter1" result="shadowBlurOuter1"/>
      <feColorMatrix values="0 0 0 0 0 0 0 0 0 0 0 0 0 0 0 0 0 0 0.08 0" in="shadowBlurOuter1"/>
    </filter>
    <filter x="-21.5%" y="-30.8%" width="143%" height="186.2%" filterUnits="objectBoundingBox" id="p">
      <feOffset dy="5" in="SourceAlpha" result="shadowOffsetOuter1"/>
      <feGaussianBlur stdDeviation="5" in="shadowOffsetOuter1" result="shadowBlurOuter1"/>
      <feColorMatrix values="0 0 0 0 0 0 0 0 0 0 0 0 0 0 0 0 0 0 0.08 0" in="shadowBlurOuter1"/>
    </filter>
    <linearGradient x1="39.7%" y1="99%" x2="60.7%" y2="1.3%" id="d">
      <stop stop-color="#794FEC" offset="0%"/>
      <stop stop-color="#794FEC" offset="100%"/>
    </linearGradient>
    <linearGradient x1="50.2%" y1="-4.1%" x2="50%" y2="86.1%" id="g">
      <stop stop-color="#EEECF8" offset="0%"/>
      <stop stop-color="#FFF" offset="100%"/>
    </linearGradient>
    <linearGradient x1="51.6%" y1="-4.1%" x2="51.6%" y2="69.4%" id="i">
      <stop stop-color="#EFEEF9" offset="0%"/>
      <stop stop-color="#FFF" offset="100%"/>
    </linearGradient>
    <path d="M250.4 7c-3.2-3.2-9.7-7-22.3-7h-22.5c-1.1.1-2.8.8-3 3.6-.2 3.7-.6 8.7-4.4 12.5-2.8 3-6.6 4.3-10.4 4.3H72c-3.9 0-7.6-1.4-10.5-4.3-3.7-3.8-4.2-8.8-4.4-12.5-.1-2.8-1.8-3.5-3-3.6h-23c-12.6 0-19 3.8-22.3 7C1.3 14.2 0 21.3 0 37.5v484.2C0 538 1.3 545 9 552.5c3.1 3.1 9.6 6.9 22.2 6.9h196.9c12.6 0 19-3.8 22.3-7 7.5-7.3 8.9-14.4 8.9-30.6V37.6c0-16.2-1.4-23.3-9-30.7" id="c"/>
    <path d="M0 8v395.5C0 417 1.3 422.9 8.4 429c3 2.7 9 5.8 20.9 5.8h184.5c11.8 0 17.8-3.1 20.8-5.8 7.1-6.1 8.4-12 8.4-25.5V8a8 8 0 00-8-8H8a8 8 0 00-8 8z" id="f"/>
  </defs>
  <g fill="none" fill-rule="evenodd">
    <mask id="b" fill="#fff">
      <use xlink:href="#a"/>
    </mask>
    <use fill="#FFF" xlink:href="#a"/>
    <g mask="url(#b)">
      <path d="M393 55.5c0-19.4-2-31.4-14.4-43.5-12-11.6-29-12-34.9-12H146.2c-5.8 0-23 .4-35 12C99 24 97 36.1 97 55.5v485c0 19.4 2 31.4 14.3 43.5 11.9 11.6 29 12 34.9 12h197.5c5.8 0 23-.4 34.9-12 12.3-12 14.3-24.1 14.3-43.5v-485" fill="#000045"/>
      <path d="M146.4 593.3c-17.8 0-27.9-6.2-33.2-11.4-11.5-11.2-13.5-22.4-13.5-41.7V55.7c0-19.2 2-30.4 13.5-41.7 5.3-5.1 15.4-11.3 33.2-11.3h197.1c17.8 0 27.9 6.2 33.1 11.3 11.6 11.3 13.6 22.5 13.6 41.7v484.5c0 19.3-2 30.5-13.6 41.7-5.2 5.2-15.3 11.4-33 11.4H146.3M97.4 80h-.8l-.3.2-.2.2-.3.2v.2l-.2.5v20.3l.1.5.1.1.3.3.2.1.3.2h.2l.2.1h1.4V80h-1M97.4 123.3H96.8l-.2.1-.3.2-.2.1-.3.3v.1l-.2.5v40.6l.1.5.1.2.3.2.2.2.3.1.2.1h.2l.4.1h1v-43.3h-1M98 177.4l-.2.1h-.1l-.2.1-.1.2-.2.1-.1.3v.1l-.1.5V220l.1.2.1.2.2.2.1.1h.2v.1h.6v-43.3H98M394.2 204.6V140v-.6l-.4-.5c-.3-.4-.7-.6-1.1-.7h-1.1v67.7h.6c.6 0 1.2-.3 1.6-.7l.3-.6" fill="#000045"/>
      <path d="M281.6 23.7a4.7 4.7 0 11-9.5 0 4.7 4.7 0 019.5 0M262.6 23c0 1.5-1.1 2.7-2.4 2.7h-31.8c-1.4 0-2.5-1.2-2.5-2.7 0-1.5 1.1-2.7 2.5-2.7h31.8c1.3 0 2.4 1.2 2.4 2.7" fill="#292971"/>
      <g transform="translate(116 17.6)">
        <mask id="e" fill="#fff">
          <use xlink:href="#c"/>
        </mask>
        <use fill="url(#d)" xlink:href="#c"/>
        <path d="M-112.7 71.8v8.1h4.3c1.7 0 2.5.4 4.7 2l.4.3c3.2 2.3 5.5 3.1 9.1 3.1 3.7 0 5.9-.7 9.2-3.1l.7-.6.7-.4a6 6 0 014-1.3c2 0 2.8.3 4.8 1.7l.7.6c3.3 2.3 5.5 3.1 9.2 3.1 3.6 0 5.9-.7 9.1-3.1l.8-.6.6-.4a6 6 0 014.1-1.3c2 0 2.8.3 4.7 1.7l.8.6c3.2 2.3 5.5 3.1 9.1 3.1 3.7 0 5.9-.7 9.2-3.1l.7-.6c2-1.4 2.8-1.7 4.8-1.7 1.9 0 2.7.3 4.7 1.7l.7.6c3.3 2.3 5.5 3.1 9.2 3.1 3.6 0 5.8-.7 9.1-3.1l.8-.6c2-1.4 2.8-1.7 4.7-1.7 2 0 2.8.3 4.7 1.7l.7.6c3.3 2.3 5.6 3.1 9.2 3.1 3.7 0 5.9-.7 9.2-3.1l.7-.6c2-1.4 2.8-1.7 4.8-1.7 1.8 0 2.6.3 4.4 1.5l1 .8c3.3 2.3 5.5 3.1 9.2 3.1 3.6 0 5.8-.7 9.1-3.1l.8-.6.6-.4a6 6 0 014.1-1.3h3.9v-8.1h-4.4c-3.4 0-5.5.9-8.7 3.1l-.7.6c-2 1.4-2.8 1.7-4.7 1.7-2 0-2.8-.3-4.8-1.7l-.7-.5a13.7 13.7 0 00-9.1-3.2c-3.7 0-6 .8-9.2 3.1l-.8.6c-2 1.4-2.7 1.7-4.7 1.7-1.9 0-2.7-.3-4.7-1.7l-.7-.5a13.7 13.7 0 00-9.2-3.2c-3.7 0-5.9.8-9.1 3.1l-.8.6c-2 1.4-2.8 1.7-4.7 1.7-2 0-2.8-.3-4.7-1.7l-.8-.5a13.7 13.7 0 00-9.1-3.2c-3.7 0-6 .8-9.2 3.1l-.8.6c-1.9 1.4-2.7 1.7-4.7 1.7-1.8 0-2.6-.2-4.4-1.5l-1-.7a13.7 13.7 0 00-9.2-3.2c-3.6 0-5.9.8-9.1 3.1l-.8.6c-2 1.4-2.8 1.7-4.7 1.7-2 0-2.8-.3-4.7-1.7l-.8-.5a13.7 13.7 0 00-9.1-3.2c-3.7 0-5.9.8-9.2 3.1l-.7.6c-2 1.4-2.8 1.7-4.8 1.7-1.9 0-2.7-.3-4.7-1.7l-.7-.5a13.7 13.7 0 00-9.2-3.2h-3.9zM214.5 17.6v8.1h4.2c1.8 0 2.6.4 4.7 2l.4.3c3.3 2.4 5.5 3.2 9.2 3.2 3.7 0 5.9-.8 9.2-3.2l.7-.6.7-.4a6 6 0 014-1.3c2 0 2.8.3 4.8 1.8l.7.5c3.3 2.4 5.5 3.2 9.2 3.2 3.6 0 5.8-.8 9.1-3.2l.8-.6.6-.4a6 6 0 014-1.3c2 0 2.8.3 4.8 1.8l.7.5c3.3 2.4 5.5 3.2 9.2 3.2 3.7 0 5.9-.8 9.2-3.2l.7-.6c2-1.4 2.8-1.7 4.7-1.7 2 0 2.8.3 4.8 1.8l.7.5c3.3 2.4 5.5 3.2 9.2 3.2 3.6 0 5.8-.8 9.1-3.2l.8-.6c2-1.4 2.7-1.7 4.7-1.7s2.7.3 4.7 1.8l.7.5c3.3 2.4 5.5 3.2 9.2 3.2 3.7 0 5.9-.8 9.2-3.2l.7-.6c2-1.4 2.8-1.7 4.7-1.7 1.9 0 2.7.3 4.5 1.5l1 .8c3.2 2.4 5.5 3.2 9.2 3.2 3.6 0 5.8-.8 9.1-3.2l.8-.6.6-.4a6 6 0 014-1.3h4v-8h-4.4c-3.4 0-5.5.8-8.7 3l-.7.6c-2 1.4-2.8 1.7-4.7 1.7-2 0-2.8-.3-4.8-1.7l-.7-.5a13.7 13.7 0 00-9.2-3.2c-3.6 0-5.8.8-9.1 3.2l-.8.5c-2 1.4-2.7 1.7-4.7 1.7s-2.7-.3-4.7-1.7l-.7-.5a13.7 13.7 0 00-9.2-3.2c-3.7 0-5.9.8-9.2 3.2l-.7.5c-2 1.4-2.8 1.7-4.7 1.7-2 0-2.8-.3-4.8-1.7l-.7-.5a13.7 13.7 0 00-9.2-3.2c-3.6 0-5.8.8-9.1 3.2l-.8.5c-2 1.4-2.7 1.7-4.7 1.7-1.8 0-2.6-.2-4.4-1.5l-1-.7a13.7 13.7 0 00-9.2-3.2c-3.7 0-5.9.8-9.2 3.2l-.7.5c-2 1.4-2.8 1.7-4.7 1.7-2 0-2.8-.3-4.8-1.7l-.7-.5a13.7 13.7 0 00-9.2-3.2c-3.6 0-5.8.8-9.1 3.2l-.8.5c-2 1.4-2.7 1.7-4.7 1.7s-2.7-.3-4.7-1.7l-.7-.5a13.7 13.7 0 00-9.2-3.2h-3.9z" fill="#8967EC" fill-rule="nonzero" mask="url(#e)"/>
        <g mask="url(#e)">
          <path d="M174 56.9l9-4c.5-.2.5-.8 0-1l-9-4c-.3 0-.6.2-.6.6v2.4c0 .3.2.5.4.5l7.3 1-7.3 1c-.2 0-.4.3-.4.6v2.4c0 .4.3.7.7.5zM29 51.4h-9.7l3.3 3.4a.9.9 0 11-1.2 1.2l-4.9-4.8a.9.9 0 010-1.3l5-4.8c.2-.3.8-.3 1.1 0 .4.3.4.9 0 1.2l-3.3 3.4H29c.5 0 .9.4.9.8 0 .5-.4 1-.9 1z" fill="#FFF"/>
          <path d="M107.6 56v-2.5h1.9c.7 0 1.3 0 1.9-.3.5-.3 1-.6 1.2-1 .3-.5.4-1 .4-1.6 0-.7-.1-1.2-.4-1.6-.3-.5-.7-.8-1.2-1-.6-.3-1.2-.4-2-.4H106V56h1.6zm1.8-3.8h-1.8V49h1.8c.7 0 1.2.1 1.5.4.4.3.6.7.6 1.3 0 .5-.2 1-.6 1.2-.3.3-.8.4-1.5.4zm7.1 3.9c.5 0 .9-.1 1.2-.3.4-.1.6-.3.8-.6v.8h1.4v-3.8c0-.9-.2-1.6-.7-2-.5-.5-1.2-.7-2.2-.7-.5 0-1 0-1.5.2-.5.1-.9.3-1.2.6l.6 1 .9-.4 1-.2c.6 0 1 .2 1.2.4.3.2.4.6.4 1v.1h-1.6c-1 0-1.6.2-2 .5-.5.4-.7.9-.7 1.4 0 .4.1.7.3 1l.8.7c.4.2.8.3 1.3.3zm.3-1.1c-.4 0-.7-.1-.9-.3a.8.8 0 01-.3-.6c0-.6.4-.9 1.3-.9h1.5v.8c0 .3-.3.5-.6.7a2 2 0 01-1 .3zm5.6 3.4c.5 0 1-.2 1.4-.4.4-.3.8-.8 1-1.5l3-7h-1.4l-2 4.8-2-4.7h-1.6l2.8 6.4-.1.2c-.1.4-.3.6-.5.7a1 1 0 01-.6.2h-.6l-.5-.4-.6 1c.2.3.4.4.7.5l1 .2zm7.9-2.4v-3.3c0-.6.1-1 .4-1.4.3-.3.7-.5 1.3-.5.4 0 .8.1 1 .4.3.3.4.7.4 1.3V56h1.5v-3.3c0-.6.1-1 .5-1.4.3-.3.7-.5 1.2-.5.4 0 .8.1 1 .4.3.3.4.7.4 1.3V56h1.5v-3.7c0-1-.2-1.6-.7-2.1-.5-.5-1.1-.7-2-.7-.4 0-.9 0-1.3.3-.4.2-.8.4-1 .8a2 2 0 00-.9-.8 3 3 0 00-2.5 0c-.3 0-.6.3-.9.6v-.8h-1.4V56h1.5zm14.1 0c.6 0 1 0 1.5-.2s.8-.4 1.1-.8l-.8-1c-.4.6-1 .8-1.7.8-.6 0-1-.2-1.4-.4-.4-.3-.6-.7-.7-1.2h5v-.4c0-.7 0-1.2-.4-1.7a3 3 0 00-1.1-1.2c-.5-.3-1-.4-1.7-.4-.6 0-1.2.1-1.7.4a3 3 0 00-1.2 1.2c-.3.5-.4 1-.4 1.7 0 .6.1 1.2.4 1.7.3.5.7.9 1.3 1.1a4 4 0 001.8.5zm1.6-3.7h-3.6c0-.5.3-.9.6-1.2.3-.3.7-.4 1.2-.4s1 .1 1.2.4c.4.3.6.7.6 1.2zm4.4 3.7v-3.3c0-.6.1-1 .5-1.4.3-.3.7-.5 1.3-.5.5 0 .8.1 1.1.4.3.3.4.7.4 1.3V56h1.5v-3.7c0-1-.2-1.6-.7-2.1-.5-.5-1.2-.7-2-.7-.4 0-.9 0-1.2.2l-1 .7v-.8H149V56h1.5zm9.1 0h.8l.7-.4-.5-1-.8.2c-.3 0-.5 0-.7-.2l-.2-.7v-3h1.7v-1.3h-1.7v-1.5h-1.5v1.5h-1v1.2h1v3c0 .8.2 1.3.6 1.7.4.4 1 .6 1.6.6z" fill="#FFF" fill-rule="nonzero"/>
        </g>
        <g mask="url(#e)">
          <g transform="translate(8.1 104.3)">
            <mask id="h" fill="#fff">
              <use xlink:href="#f"/>
            </mask>
            <use fill="#FFF" xlink:href="#f"/>
            <path d="M0 20.3h92.2a30 30 0 0130 30v261a30 30 0 01-30 30H0v-321z" fill="url(#g)" mask="url(#h)"/>
            <path d="M167.1 65h76v321h-76a30 30 0 01-30-30V95a30 30 0 0130-30z" fill="url(#i)" mask="url(#h)"/>
            <g mask="url(#h)">
              <path d="M172.3 39.4a5.2 5.2 0 015.2 5.2h0v72.1H65.1v-72a5.2 5.2 0 015.3-5.3h0z" stroke="#000045" stroke-width="3" fill="#FFF"/>
              <path d="M95.1 60c4.4 0 8 3.3 8.3 7.7V72h.3a2.7 2.7 0 012.7 2.5V86a2.7 2.7 0 01-2.4 2.7H86.5c-1.4 0-2.6-1-2.7-2.4V74.8a2.7 2.7 0 012.4-2.7H101.3v-4a6.2 6.2 0 00-12.4-.4v.3a1 1 0 01-1.6 1 1 1 0 01-.5-1c.1-4.5 3.8-8 8.3-8zm8.6 14.2H86.5a.6.6 0 00-.6.5v11.4a.6.6 0 00.5.6h17.3a.6.6 0 00.6-.5V74.7a.6.6 0 00-.5-.6h-.1zm-10.2 4.3c.3-.7 1.1-1.1 1.9-1 .8.2 1.4.9 1.4 1.7 0 .5-.1 1-.5 1.3h-.2l-.1.4v2.4c0 .3-.2.5-.5.6a.9.9 0 01-1.2-.6V81l-.2-.3c-.7-.5-1-1.3-.6-2z" fill="#45D39A" fill-rule="nonzero"/>
              <path d="M118.2 80.7c.8 0 1.4.3 2 1l.3.1.1.2c.5.5.7.6 1.2.6.4 0 .6 0 1-.4V82l.3-.2c.8-.8 1.3-1 2.2-1 .8 0 1.3.2 2 .8l.2.2.1.2c.5.5.7.6 1.2.6.4 0 .6 0 1-.4l.1-.2.2-.2c.8-.8 1.3-1 2.2-1 .8 0 1.3.2 2 .8l.2.2.2.3c.5.4.7.5 1.1.5.4 0 .6 0 1-.4l.1-.2.2-.2c.8-.8 1.3-1 2.2-1 .8 0 1.3.2 2 .8l.2.2.2.2c.3.3.6.5 1 .5h.1v2.8c-.8-.1-1.5-.4-2-.8l-.2-.2-.2-.2c-.4-.5-.6-.6-1-.6-.5 0-.7 0-1 .4l-.2.2-.2.2c-.8.8-1.3 1-2.2 1-.8 0-1.3-.2-2-.8l-.2-.2-.2-.2c-.5-.5-.6-.6-1.1-.6a1 1 0 00-.8.3l-.2.1-.1.2-.2.2c-.8.8-1.3 1-2.2 1-.8 0-1.3-.2-2-.8l-.2-.2-.2-.2c-.5-.5-.7-.6-1.1-.6a1 1 0 00-.9.3l-.1.1-.2.2-.1.2c-.8.8-1.4 1-2.2 1-.8 0-1.4-.2-2-.8l-.3-.3c-.5-.5-.7-.6-1-.7h-1.2v-2.8h1zm0-9.2c.8 0 1.4.3 2 1l.3.1.1.2c.5.5.7.6 1.2.6.4 0 .6 0 1-.4v-.2l.3-.2c.8-.8 1.3-1 2.2-1 .8 0 1.3.2 2 .8l.2.2.1.2c.5.5.7.6 1.2.6.4 0 .6 0 1-.4l.1-.2.2-.2c.8-.8 1.3-1 2.2-1 .8 0 1.3.2 2 .8l.2.2.2.3c.5.4.7.5 1.1.5.4 0 .6 0 1-.4l.1-.2.2-.2c.8-.8 1.3-1 2.2-1 .8 0 1.3.2 2 .8l.2.2.2.2c.5.5.7.6 1.1.6.4 0 .6 0 1-.4l.3-.4c.8-.8 1.4-1 2.2-1 .8 0 1.4.2 2 .8l.2.2.2.2c.5.5.7.6 1.1.6.5 0 .7 0 1-.4l.2-.2.2-.2c.7-.8 1.3-1 2.2-1 .8 0 1.3.2 2 .8l.2.2.1.2c.5.5.7.6 1.2.6.4 0 .6 0 1-.4l.3-.4c.7-.7 1.1-1 1.8-1h1.3v2.7h-1a1 1 0 00-.8.3l-.1.1-.2.2-.1.2c-.8.8-1.4 1-2.2 1-.8 0-1.4-.2-2-.8l-.2-.2-.3-.3c-.4-.4-.6-.5-1-.5-.5 0-.7 0-1 .4l-.4.4c-.7.8-1.3 1-2.2 1-.8 0-1.3-.2-2-.8l-.2-.2-.1-.2c-.5-.5-.7-.6-1.2-.6-.4 0-.6 0-1 .4l-.1.2-.2.2c-.8.8-1.3 1-2.2 1-.8 0-1.3-.2-2-.8l-.2-.2-.2-.2c-.4-.5-.6-.6-1-.6-.5 0-.7 0-1 .4l-.2.2-.2.2c-.8.8-1.3 1-2.2 1-.8 0-1.3-.2-2-.8l-.2-.2-.2-.2c-.5-.5-.6-.6-1.1-.6a1 1 0 00-.8.3l-.2.1-.1.2-.2.2c-.8.8-1.3 1-2.2 1-.8 0-1.3-.2-2-.8l-.2-.2-.2-.2c-.5-.5-.7-.6-1.1-.6a1 1 0 00-.9.3l-.1.1-.2.2-.1.2c-.8.8-1.4 1-2.2 1-.8 0-1.4-.2-2-.8l-.3-.3c-.5-.5-.7-.6-1-.7h-1.2v-2.8h1zm0-9.2c.8 0 1.4.3 2 1l.3.1.1.2c.5.5.7.6 1.2.6.4 0 .6 0 1-.4v-.2l.3-.2c.8-.8 1.3-1 2.2-1 .8 0 1.3.2 2 .8l.2.2.1.2c.5.5.7.6 1.2.6.4 0 .6 0 1-.4l.1-.2.2-.2c.8-.8 1.3-1 2.2-1 .8 0 1.3.2 2 .8l.2.2.2.3c.5.4.7.5 1.1.5.4 0 .6 0 1-.4l.1-.2.2-.2c.8-.8 1.3-1 2.2-1 .8 0 1.3.2 2 .8l.2.2.2.2c.5.5.7.6 1.1.6.4 0 .6 0 1-.4l.3-.4c.8-.8 1.4-1 2.2-1 .8 0 1.4.2 2 .8l.2.2.2.2c.5.5.7.6 1.1.6.5 0 .7 0 1-.4l.2-.2.2-.2c.7-.8 1.3-1 2.2-1 .8 0 1.3.2 2 .8l.2.2.1.2c.5.5.7.6 1.2.6.4 0 .6 0 1-.4l.3-.4c.7-.7 1.1-1 1.8-1h1.3V65h-1a1 1 0 00-.8.3l-.1.1-.2.2-.1.2c-.8.8-1.4 1-2.2 1-.8 0-1.4-.2-2-.8l-.2-.2-.3-.3c-.4-.4-.6-.5-1-.5-.5 0-.7 0-1 .4l-.4.4c-.7.8-1.3 1-2.2 1-.8 0-1.3-.2-2-.8l-.2-.2-.1-.2c-.5-.5-.7-.6-1.2-.6-.4 0-.6 0-1 .4l-.1.2-.2.2c-.8.8-1.3 1-2.2 1-.8 0-1.3-.2-2-.8l-.2-.2-.2-.2c-.4-.5-.6-.6-1-.6-.5 0-.7 0-1 .4l-.2.2-.2.2c-.8.8-1.3 1-2.2 1-.8 0-1.3-.2-2-.8l-.2-.2-.2-.2c-.5-.5-.6-.6-1.1-.6a1 1 0 00-.8.3l-.2.1-.1.2-.2.2c-.8.8-1.3 1-2.2 1-.8 0-1.3-.2-2-.8l-.2-.2-.2-.2c-.5-.5-.7-.6-1.1-.6a1 1 0 00-.9.3l-.1.1-.2.2-.1.2c-.8.8-1.4 1-2.2 1-.8 0-1.4-.2-2-.8l-.3-.3c-.5-.5-.7-.6-1-.7h-1.2v-2.8h1z" fill="#CEC9F0" fill-rule="nonzero"/>
              <path d="M53.6 111.5h135.8a3.4 3.4 0 110 6.7H53.6a3.4 3.4 0 110-6.7z" fill="#000045"/>
            </g>
            <g mask="url(#h)">
              <path d="M31.6 197.7v-8h3.1v-1.1h-7.5v1h3.1v8h1.3zm5.6 0V194c0-.7.2-1.3.6-1.7.4-.4.9-.6 1.6-.6.6 0 1 .2 1.4.5.3.4.4.9.4 1.5v3.9h1.3v-4c0-1-.3-1.7-.8-2.2-.5-.5-1.2-.8-2-.8-.6 0-1 0-1.5.3l-1 .7V188h-1.3v9.7h1.3zm8.2-8.3a.8.8 0 00.9-.8l-.3-.6a.8.8 0 00-.6-.2.8.8 0 00-.8.8c0 .3 0 .4.2.6.2.2.4.2.6.2zm.6 8.3v-7h-1.2v7H46zm4.4 0c1 0 1.6-.2 2.2-.5.5-.4.8-.9.8-1.5 0-.5-.1-.8-.4-1.1a2 2 0 00-.9-.6l-1.3-.3-1-.2-.6-.3a.7.7 0 01-.2-.5c0-.3.2-.5.4-.7l1.2-.2c.8 0 1.5.1 2 .5l.6-1-1.2-.4-1.3-.2c-1 0-1.6.2-2.1.6-.6.3-.8.8-.8 1.5 0 .5.1.8.4 1.1.2.3.5.5.9.6l1.3.3 1 .2.5.2c.2.1.2.3.2.5 0 .6-.5 1-1.6 1a4.5 4.5 0 01-2.4-.8l-.5 1c.3.3.7.5 1.2.6.5.2 1 .2 1.6.2zm11 0c.7 0 1.2-.1 1.7-.4.5-.2.9-.6 1.1-1l-.9-.6a2.1 2.1 0 01-1.9 1c-.4 0-.8-.2-1.2-.4-.3-.2-.6-.4-.8-.8-.2-.4-.3-.8-.3-1.3s0-.9.3-1.3l.8-.8 1.2-.3c.4 0 .8 0 1 .2.4.2.7.4.9.8l1-.6c-.3-.5-.7-.9-1.2-1.1-.5-.3-1-.4-1.7-.4s-1.3.1-1.8.4a3.5 3.5 0 00-1.8 3c0 .8.2 1.4.5 2 .3.5.7.9 1.3 1.2.5.3 1.1.4 1.8.4zm7.4 0c.7 0 1.3-.1 1.9-.4.5-.3 1-.7 1.2-1.3.3-.5.5-1.1.5-1.8s-.2-1.3-.5-1.8-.7-1-1.2-1.3c-.6-.3-1.2-.4-1.9-.4s-1.3.1-1.8.4a3.6 3.6 0 00-1.7 3c0 .8 0 1.4.4 2a3.7 3.7 0 003.1 1.7zm0-1c-.4 0-.8-.2-1.2-.4l-.8-.8c-.2-.4-.3-.8-.3-1.3s0-.9.3-1.3l.8-.8 1.2-.3c.5 0 .9 0 1.2.3.4.2.6.5.8.8.2.4.3.8.3 1.3s0 1-.3 1.3c-.2.3-.4.6-.8.8-.3.2-.7.3-1.2.3zm6.6 1V194c0-.7.2-1.3.5-1.7.4-.4 1-.6 1.6-.6.6 0 1.1.2 1.4.5.3.4.5.9.5 1.5v3.9h1.3v-4c0-1-.3-1.7-.8-2.2-.5-.5-1.2-.8-2.1-.8-.6 0-1 0-1.5.3-.4.2-.7.4-1 .8v-1h-1.2v6.9h1.3zm8.8 0V194c0-.7.2-1.3.6-1.7.4-.4 1-.6 1.6-.6.6 0 1 .2 1.4.5.3.4.5.9.5 1.5v3.9h1.2v-4c0-1-.2-1.7-.8-2.2-.5-.5-1.2-.8-2-.8-.6 0-1 0-1.5.3-.4.2-.8.4-1 .8v-1H83v6.9h1.2zm10.7 0c.6 0 1 0 1.5-.3a3 3 0 001.2-.8l-.7-.8c-.5.6-1.1.8-2 .8-.6 0-1.2-.1-1.7-.5-.4-.4-.7-.9-.8-1.5H98v-.4c0-.6-.1-1.3-.4-1.8-.3-.5-.7-1-1.2-1.3-.5-.3-1.1-.4-1.8-.4-.6 0-1.2.1-1.7.4-.6.3-1 .8-1.3 1.3-.3.5-.4 1.1-.4 1.8s.1 1.3.4 1.8c.4.6.8 1 1.4 1.3a4 4 0 001.9.4zm2-4h-4.5c.1-.6.3-1 .7-1.4.4-.4 1-.5 1.5-.5a2.1 2.1 0 012.3 2zm5.9 4c.6 0 1.2-.1 1.7-.4.4-.2.8-.6 1-1l-.9-.6a2.1 2.1 0 01-1.8 1c-.5 0-.9-.2-1.2-.4-.4-.2-.7-.4-.9-.8-.2-.4-.3-.8-.3-1.3s.1-.9.3-1.3c.2-.3.5-.6.9-.8.3-.2.7-.3 1.2-.3.4 0 .7 0 1 .2.4.2.6.4.8.8l1-.6c-.3-.5-.7-.9-1.1-1.1-.5-.3-1-.4-1.7-.4s-1.3.1-1.9.4a3.5 3.5 0 00-1.8 3c0 .8.2 1.4.5 2 .3.5.8.9 1.3 1.2.6.3 1.2.4 1.9.4zm6.8 0h.8l.7-.4-.4-1c-.3.3-.6.4-1 .4-.3 0-.6-.1-.8-.3-.2-.2-.3-.5-.3-.9v-3.7h2v-1h-2v-1.5h-1.2v1.5h-1.2v1h1.2v3.8c0 .7.2 1.2.6 1.6.3.3.9.5 1.6.5zm3.6-8.3a.8.8 0 00.9-.8l-.3-.6a.8.8 0 00-.6-.2.8.8 0 00-.8.8c0 .3 0 .4.2.6.2.2.4.2.6.2zm.6 8.3v-7h-1.2v7h1.2zm5.4 0c.6 0 1.3-.1 1.8-.4a3.6 3.6 0 001.7-3c0-.8-.1-1.4-.4-1.9-.3-.5-.8-1-1.3-1.3-.5-.3-1.2-.4-1.8-.4-.7 0-1.3.1-1.9.4-.5.3-1 .8-1.3 1.3-.3.5-.4 1.1-.4 1.8s.1 1.3.4 1.8c.3.6.8 1 1.3 1.3.6.3 1.2.4 1.9.4zm0-1c-.5 0-.9-.2-1.2-.4-.4-.2-.7-.5-.9-.8-.2-.4-.3-.8-.3-1.3s.1-.9.3-1.3c.2-.3.5-.6.9-.8.3-.2.7-.3 1.2-.3.4 0 .8 0 1.2.3l.8.8c.2.4.3.8.3 1.3s-.1 1-.3 1.3l-.8.8-1.2.3zm6.5 1V194c0-.7.2-1.3.6-1.7.4-.4 1-.6 1.6-.6.6 0 1 .2 1.4.5.3.4.5.9.5 1.5v3.9h1.2v-4c0-1-.3-1.7-.8-2.2-.5-.5-1.2-.8-2-.8-.6 0-1 0-1.5.3-.4.2-.8.4-1 .8v-1h-1.2v6.9h1.2zm11.7-8.3a.8.8 0 00.9-.8l-.3-.6a.8.8 0 00-.6-.2.8.8 0 00-.8.8c0 .3 0 .4.2.6.2.2.4.2.6.2zm.7 8.3v-7h-1.3v7h1.3zm4.3 0c1 0 1.7-.2 2.2-.5.5-.4.8-.9.8-1.5 0-.5-.1-.8-.4-1.1a2 2 0 00-.8-.6l-1.4-.3-1-.2c-.2 0-.4-.1-.5-.3a.7.7 0 01-.3-.5c0-.3.2-.5.4-.7l1.3-.2c.7 0 1.4.1 2 .5l.5-1-1.2-.4-1.3-.2c-1 0-1.6.2-2.1.6-.5.3-.8.8-.8 1.5 0 .5.1.8.4 1.1.2.3.5.5.9.6l1.3.3 1 .2.5.2c.2.1.2.3.2.5 0 .6-.5 1-1.6 1a4.5 4.5 0 01-2.4-.8l-.5 1c.3.3.7.5 1.2.6.5.2 1 .2 1.6.2zm11.1 0c.6 0 1.1 0 1.6-.3a3 3 0 001.1-.8l-.7-.8c-.5.6-1.1.8-2 .8-.6 0-1.2-.1-1.6-.5-.5-.4-.8-.9-.8-1.5h5.6v-.4c0-.6-.2-1.3-.5-1.8-.2-.5-.6-1-1.2-1.3-.5-.3-1-.4-1.7-.4s-1.3.1-1.8.4c-.5.3-1 .8-1.2 1.3a3.6 3.6 0 000 3.6c.3.6.7 1 1.3 1.3a4 4 0 002 .4zm2-4H151c0-.6.3-1 .7-1.4.4-.4.9-.5 1.5-.5a2.1 2.1 0 012.2 2zm4.2 4V194c0-.7.2-1.3.5-1.7.4-.4 1-.6 1.6-.6.6 0 1.1.2 1.4.5.3.4.5.9.5 1.5v3.9h1.2v-4c0-1-.2-1.7-.7-2.2-.5-.5-1.2-.8-2.1-.8-.6 0-1 0-1.5.3-.4.2-.7.4-1 .8v-1h-1.2v6.9h1.3zm10.6 0c.6 0 1.1-.1 1.6-.4.5-.2.9-.6 1.2-1l-1-.6a2.1 2.1 0 01-1.8 1c-.5 0-.9-.2-1.3-.4-.3-.2-.6-.4-.8-.8-.2-.4-.3-.8-.3-1.3s0-.9.3-1.3l.8-.8c.4-.2.8-.3 1.3-.3.3 0 .7 0 1 .2.3.2.6.4.8.8l1-.6c-.3-.5-.7-.9-1.2-1.1-.5-.3-1-.4-1.6-.4-.7 0-1.4.1-2 .4-.5.3-.9.8-1.2 1.3-.3.5-.5 1.1-.5 1.8s.2 1.3.5 1.8c.3.6.7 1 1.3 1.3.5.3 1.2.4 1.9.4zm5.6 0v-3.5c0-.7.2-1.3.6-1.7.4-.4 1-.6 1.6-.6h.3v-1.2c-.6 0-1.1.1-1.6.3-.4.2-.7.5-1 1v-1.2h-1.1v6.9h1.2zm4.4 2.6c.6 0 1-.2 1.4-.5.4-.3.8-.8 1-1.5l3.4-7.5H185l-2.4 5.5-2.4-5.5h-1.3l3 6.8-.2.5a2 2 0 01-.5.8c-.2.2-.5.3-.8.3-.5 0-.9-.2-1.2-.5l-.6 1 .8.4 1 .2zm8.2-.1v-3.6c.3.4.7.7 1 .8l1.4.3c.7 0 1.3-.1 1.8-.4.6-.3 1-.7 1.3-1.3.3-.5.4-1.1.4-1.8s-.1-1.3-.4-1.8c-.3-.6-.7-1-1.3-1.3a3.6 3.6 0 00-3.2-.1c-.4.2-.7.5-1 .9v-1.1h-1.2v9.4h1.2zm2.3-3.6c-.4 0-.8 0-1.2-.3l-.8-.8c-.2-.4-.3-.8-.3-1.3s.1-.9.3-1.3a2.2 2.2 0 012-1.1c.5 0 .9 0 1.2.3.4.2.6.5.9.8.2.4.3.8.3 1.3s-.1 1-.3 1.3a2.2 2.2 0 01-2 1.1zm7.7 1.1h.8l.7-.4-.4-1c-.2.3-.6.4-1 .4-.3 0-.6-.1-.7-.3-.2-.2-.3-.5-.3-.9v-3.7h2v-1h-2v-1.5h-1.3v1.5h-1.1v1h1.1v3.8c0 .7.2 1.2.6 1.6.4.3 1 .5 1.6.5zm6.1 0c.6 0 1 0 1.6-.3a3 3 0 001.1-.8l-.7-.8c-.5.6-1.1.8-2 .8-.6 0-1.2-.1-1.7-.5-.4-.4-.7-.9-.8-1.5h5.6v-.4c0-.6 0-1.3-.4-1.8-.3-.5-.7-1-1.2-1.3-.5-.3-1-.4-1.7-.4s-1.3.1-1.8.4c-.5.3-1 .8-1.3 1.3-.3.5-.4 1.1-.4 1.8s.1 1.3.5 1.8c.3.6.7 1 1.3 1.3a4 4 0 001.9.4zm2-4H202c.1-.6.3-1 .7-1.4.5-.4 1-.5 1.6-.5a2.1 2.1 0 012.2 2zm5.7 4c.5 0 1 0 1.4-.3.5-.2.8-.5 1-.8v1h1.3V188h-1.3v3.8c-.2-.4-.6-.6-1-.8a3.6 3.6 0 00-3.2.2c-.5.2-.9.6-1.2 1.2a3.7 3.7 0 000 3.7c.3.5.7.9 1.2 1.2.6.3 1.2.4 1.8.4zm.1-1c-.4 0-.8-.2-1.2-.4l-.8-.8c-.2-.4-.3-.8-.3-1.3s.1-.9.3-1.3l.8-.8 1.2-.3c.5 0 .9 0 1.2.3.4.2.7.5.9.8.2.4.3.8.3 1.3s-.1 1-.3 1.3c-.2.3-.5.6-.9.8-.3.2-.7.3-1.2.3z" fill="#A6ADB4" fill-rule="nonzero"/>
              <g transform="translate(13.6 214)">
                <rect fill="#45D39A" width="215.9" height="43.3" rx="4"/>
                <path d="M54.6 25.6c.9 0 1.7-.1 2.3-.4.6-.3 1.1-.7 1.4-1.1.3-.5.5-1 .5-1.6 0-.7-.2-1.2-.5-1.6-.4-.4-.8-.7-1.3-.9l-2-.6-1.3-.3-.8-.5a1 1 0 01-.3-.7c0-.4.2-.8.6-1a3 3 0 011.7-.4c.4 0 1 0 1.4.2l1.5.6.6-1.5-1.6-.7c-.6-.2-1.3-.2-2-.2-.8 0-1.6 0-2.2.4-.7.3-1.1.6-1.4 1.1-.4.5-.5 1-.5 1.6 0 .7.2 1.2.5 1.6.4.4.8.7 1.3.9l2 .6 1.3.3.8.5c.2.2.3.4.3.7 0 .4-.2.8-.6 1-.4.3-1 .4-1.7.4a5.7 5.7 0 01-3.5-1.2l-.6 1.5c.4.4 1 .7 1.7 1a8 8 0 002.4.3zm8.4 0l1.5-.3 1-.8v1h1.7v-4.7c0-1.2-.3-2-1-2.6-.5-.5-1.4-.8-2.6-.8-.7 0-1.3 0-1.9.2-.6.2-1 .5-1.5.8l.8 1.3 1-.5 1.4-.3c.6 0 1.1.2 1.5.5.3.3.5.7.5 1.3h-2.1c-1.1 0-2 .3-2.5.7-.6.5-.8 1-.8 1.8l.3 1.2c.3.4.6.6 1 .8.5.3 1 .4 1.7.4zm.3-1.4c-.4 0-.8-.1-1-.3a1 1 0 01-.5-.8c0-.7.6-1 1.6-1h2v.9c-.2.4-.5.7-.8.9-.4.2-.8.3-1.3.3zm8.4 1.3V19H74v-1.5h-2.2v-.4c0-.9.4-1.3 1.2-1.3.3 0 .7 0 1 .3l.5-1.4c-.4-.3-1-.4-1.7-.4-.9 0-1.6.2-2 .7-.6.5-.8 1.2-.8 2v.5h-1.3V19h1.3v6.5h1.8zm7.2 0a5 5 0 001.8-.3c.6-.2 1-.5 1.4-1l-1-1a3 3 0 01-2.2.8c-.7 0-1.3-.2-1.7-.5-.5-.4-.8-.8-.9-1.4h6.3v-.6c0-.8-.2-1.5-.5-2.1-.3-.7-.8-1.1-1.4-1.5-.6-.3-1.3-.5-2.1-.5s-1.5.2-2.1.5c-.7.4-1.2.8-1.5 1.5-.4.6-.5 1.3-.5 2 0 .9.1 1.6.5 2.2.4.6.9 1 1.6 1.4a5 5 0 002.3.6zm2-4.7h-4.6c.1-.6.4-1 .8-1.4.4-.3.9-.5 1.5-.5s1.1.2 1.5.5c.4.4.7.8.7 1.4zm9.7 4.7v-3H93c1 0 1.7-.2 2.4-.5.6-.3 1.2-.7 1.5-1.3.4-.6.6-1.2.6-2 0-.7-.2-1.4-.6-2-.3-.5-.9-1-1.5-1.2-.7-.3-1.5-.5-2.4-.5h-4.3v10.5h2zm2.3-4.7h-2.3v-4.2H93c.9 0 1.5.2 2 .6.4.3.6.9.6 1.5 0 .7-.2 1.2-.7 1.6-.4.3-1 .5-1.9.5zm8.9 4.8c.6 0 1-.1 1.5-.3l1-.8v1h1.7v-4.7c0-1.2-.3-2-.9-2.6-.6-.5-1.5-.8-2.7-.8-.6 0-1.3 0-1.9.2l-1.5.8.8 1.3 1-.5 1.4-.3c.6 0 1.1.2 1.5.5.3.3.5.7.5 1.3h-2c-1.2 0-2 .3-2.6.7-.5.5-.8 1-.8 1.8 0 .4.1.8.4 1.2.2.4.6.6 1 .8.4.3 1 .4 1.6.4zm.4-1.4c-.5 0-.9-.1-1.2-.3a1 1 0 01-.4-.8c0-.7.6-1 1.6-1h2v.9c-.2.4-.4.7-.8.9l-1.2.3zm6.9 4.3a3 3 0 001.8-.6c.5-.3 1-1 1.3-1.8l3.7-8.6H114l-2.5 5.9-2.5-6h-2l3.5 8-.1.4-.6.8c-.2.2-.5.3-.8.3a2 2 0 01-1.4-.6l-.8 1.4 1 .6 1.2.2zm9.8-3v-4c0-.9.2-1.5.6-1.9a2 2 0 011.5-.6c.6 0 1 .2 1.3.5.3.4.5 1 .5 1.6v4.4h1.9v-4c0-.9.1-1.4.5-1.9a2 2 0 011.5-.6c.6 0 1 .2 1.4.5.3.4.4 1 .4 1.6v4.4h1.9v-4.6c0-1.2-.3-2-.9-2.6-.6-.6-1.4-1-2.4-1-.6 0-1.2.2-1.7.4-.5.3-1 .6-1.3 1-.2-.4-.6-.7-1-1-.5-.2-1-.3-1.7-.3-.5 0-1 0-1.4.3-.5.2-.9.4-1.2.8v-1h-1.7v8h1.8zm17.6 0a5 5 0 001.9-.3c.5-.2 1-.5 1.3-1l-1-1a3 3 0 01-2.1.8c-.7 0-1.3-.2-1.8-.5-.4-.4-.7-.8-.8-1.4h6.2v-.6c0-.8-.1-1.5-.4-2.1-.4-.7-.9-1.1-1.5-1.5-.6-.3-1.3-.5-2-.5-.8 0-1.6.2-2.2.5-.6.4-1.1.8-1.5 1.5-.3.6-.5 1.3-.5 2 0 .9.2 1.6.6 2.2.3.6.8 1 1.5 1.4a5 5 0 002.3.6zm2-4.7H134c0-.6.3-1 .7-1.4.4-.3 1-.5 1.5-.5.6 0 1.2.2 1.6.5.4.4.6.8.7 1.4zm5.4 4.7v-4c0-.9.2-1.4.6-1.9.4-.4 1-.6 1.7-.6.6 0 1 .2 1.4.5.3.4.4 1 .4 1.6v4.4h2v-4.6c0-1.2-.4-2-1-2.6-.6-.6-1.4-1-2.4-1-.6 0-1.1.2-1.6.4a3 3 0 00-1.2.8v-1h-1.7v8h1.8zm11.4 0h1l.8-.5-.5-1.3c-.3.2-.7.3-1 .3-.4 0-.7 0-1-.3l-.2-.9V19h2.1v-1.5h-2v-1.8h-2v1.8h-1.3V19h1.3V23c0 .8.3 1.5.8 2 .4.4 1.1.7 2 .7zm5.8 0c1.1 0 2-.2 2.6-.6.7-.5 1-1 1-1.8 0-.6-.2-1-.4-1.3l-1.1-.7-1.6-.3-1.4-.4c-.3-.1-.4-.3-.4-.6s.1-.5.4-.7l1.2-.2c.9 0 1.6.2 2.3.6l.7-1.4-1.3-.5-1.6-.2c-1.1 0-2 .2-2.6.7-.6.4-1 1-1 1.8 0 .6.2 1 .5 1.3.3.4.7.6 1 .7l1.7.4c.6 0 1 .2 1.3.3.3 0 .5.3.5.6 0 .5-.6.8-1.7.8a5.4 5.4 0 01-2.8-.8l-.7 1.5 1.5.6c.6.2 1.2.3 1.9.3z" fill="#FFF" fill-rule="nonzero"/>
              </g>
            </g>
          </g>
        </g>
      </g>
    </g>
    <g mask="url(#b)">
      <g transform="translate(246.1 105.6)">
        <use fill="#000" filter="url(#j)" xlink:href="#k"/>
        <use fill="#FFBF2D" xlink:href="#k"/>
      </g>
      <path d="M313.5 128v-1.5l1.2.8.3-.6-1.2-.7 1.2-.6-.3-.6-1.3.7v-1.4h-.6v1.4l-1.2-.7-.3.6 1.2.6-1.2.7.3.6 1.3-.8v1.4h.6zm6.3 0v-1.5l1.2.8.3-.6-1.2-.7 1.2-.6-.3-.6-1.3.7v-1.4h-.6v1.4l-1.2-.7-.3.6 1.2.6-1.2.7.3.6 1.3-.8v1.4h.6zm6.3 0v-1.5l1.2.8.3-.6-1.2-.7 1.2-.6-.3-.6-1.2.7v-1.4h-.6v1.4l-1.3-.7-.3.6 1.2.6-1.2.7.3.6 1.3-.8v1.4h.6zm6.3 0v-1.5l1.2.8.3-.6-1.2-.7 1.2-.6-.3-.6-1.2.7v-1.4h-.6v1.4l-1.3-.7-.3.6 1.2.6-1.2.7.3.6 1.3-.8v1.4h.6zm10.8 0v-1.5l1.3.8.3-.6-1.2-.7 1.2-.6-.3-.6-1.3.7v-1.4h-.6v1.4l-1.2-.7-.3.6 1.2.6-1.2.7.3.6 1.2-.8v1.4h.6zm6.3 0v-1.5l1.3.8.3-.6-1.2-.7 1.2-.6-.3-.6-1.3.7v-1.4h-.6v1.4l-1.2-.7-.3.6 1.2.6-1.2.7.3.6 1.2-.8v1.4h.6zm6.4 0v-1.5l1.2.8.3-.6-1.2-.7 1.2-.6-.3-.6-1.3.7v-1.4h-.6v1.4l-1.2-.7-.3.6 1.2.6-1.2.7.3.6 1.3-.8v1.4h.6zm6.3 0v-1.5l1.2.8.3-.6-1.2-.7 1.2-.6-.3-.6-1.3.7v-1.4h-.6v1.4l-1.2-.7-.3.6 1.2.6-1.2.7.3.6 1.3-.8v1.4h.6zm10.8 0v-1.5l1.3.8.3-.6-1.2-.7 1.2-.6-.3-.6-1.3.7v-1.4h-.6v1.4l-1.2-.7-.3.6 1.2.6-1.2.7.3.6 1.2-.8v1.4h.6zm6.3 0v-1.5l1.3.8.3-.6-1.2-.7 1.2-.6-.3-.6-1.3.7v-1.4h-.6v1.4l-1.2-.7-.3.6 1.2.6-1.2.7.3.6 1.2-.8v1.4h.6zm6.3 0v-1.5l1.3.8.3-.6-1.2-.7 1.2-.6-.3-.6-1.3.7v-1.4h-.6v1.4l-1.2-.7-.3.6 1.2.6-1.2.7.3.6 1.2-.8v1.4h.6zm6.3 0v-1.5l1.3.8.3-.6-1.2-.7 1.2-.6-.3-.6-1.3.7v-1.4h-.6v1.4l-1.2-.7-.3.6 1.2.6-1.2.7.3.6 1.2-.8v1.4h.6zm11 0v-1.5l1.1.8.4-.6-1.3-.7 1.3-.6-.4-.6-1.2.7v-1.4h-.6v1.4l-1.2-.7-.3.6 1.2.6-1.2.7.3.6 1.2-.8v1.4h.6zm6.2 0v-1.5l1.2.8.4-.6-1.2-.7 1.2-.6-.4-.6-1.2.7v-1.4h-.6v1.4l-1.2-.7-.3.6 1.2.6-1.2.7.3.6 1.2-.8v1.4h.6zm6.3 0v-1.5l1.3.8.3-.6-1.2-.7 1.2-.6-.3-.6-1.3.7v-1.4h-.6v1.4l-1.2-.7-.3.6 1.2.6-1.2.7.3.6 1.2-.8v1.4h.6zm6.3 0v-1.5l1.3.8.3-.6-1.2-.7 1.2-.6-.3-.6-1.3.7v-1.4h-.6v1.4l-1.2-.7-.3.6 1.2.6-1.2.7.3.6 1.2-.8v1.4h.6z" fill="#FFF" fill-rule="nonzero"/>
      <g fill="#FFF" fill-rule="nonzero">
        <path d="M277.3 131.7H274l2-12.2h3.3zM271.2 119.5l-3 8.4-.5-1.8-1-5.5s-.2-1.1-1.6-1.1h-5.2v.2s1.5.3 3.4 1.4l2.8 10.6h3.5l5.2-12.2h-3.6zM293.5 127.4l1.7-4.6 1 4.6h-2.7zm3.6 4.3h3l-2.6-12.2h-2.7c-1.2 0-1.5.9-1.5.9l-4.9 11.3h3.4l.7-1.8h4.2l.4 1.8zM288.7 122.4l.4-2.6s-1.4-.6-3-.6c-1.5 0-5.4.7-5.4 4.1 0 3.2 4.5 3.2 4.5 4.9 0 1.6-4 1.3-5.4.3l-.5 2.8s1.5.6 3.7.6c2.3 0 5.6-1 5.6-4.2s-4.5-3.5-4.5-4.8c0-1.4 3.2-1.2 4.6-.5"/>
        <path d="M267.7 126l-1-5.4s-.2-1.1-1.6-1.1h-5.2v.2s2.4.5 4.8 2.3c2.3 1.8 3 4 3 4"/>
      </g>
    </g>
    <g mask="url(#b)">
      <g transform="translate(10.2 248.8)">
        <use fill="#000" filter="url(#l)" xlink:href="#m"/>
        <use fill="#FFF" xlink:href="#m"/>
      </g>
      <g fill-rule="nonzero">
        <path fill="#FF5F00" d="M44.5 277.6h-8.8V262h8.8z"/>
        <path d="M36.3 269.8c0-3.2 1.4-6 3.8-7.9a10 10 0 100 15.7 10 10 0 01-3.8-7.8" fill="#EB001B"/>
        <path d="M56.3 269.8a10 10 0 01-16.2 7.8 10 10 0 000-15.7 10 10 0 0116.2 7.9" fill="#F79E1B"/>
      </g>
      <path d="M69.5 271.1v-1.4l1.2.8.3-.6-1.2-.7 1.2-.7-.3-.5-1.2.7v-1.4h-.6v1.4l-1.3-.7-.3.5 1.2.7-1.2.7.3.6 1.3-.8v1.4h.6zm6.3 0v-1.4l1.2.8.3-.6-1.2-.7 1.2-.7-.3-.5-1.2.7v-1.4h-.6v1.4l-1.3-.7-.3.5 1.2.7-1.2.7.3.6 1.3-.8v1.4h.6zm6.3 0v-1.4l1.2.8.3-.6-1.2-.7 1.2-.7-.3-.5-1.2.7v-1.4h-.6v1.4l-1.3-.7-.3.5 1.3.7-1.3.7.3.6 1.3-.8v1.4h.6zm6.3 0v-1.4l1.2.8.3-.6-1.2-.7 1.2-.7-.3-.5-1.2.7v-1.4h-.6v1.4l-1.2-.7-.4.5 1.3.7-1.3.7.4.6 1.2-.8v1.4h.6zm10.9 0v-1.4l1.2.8.3-.6-1.2-.7 1.2-.7-.3-.5-1.3.7v-1.4h-.6v1.4l-1.2-.7-.3.5 1.2.7-1.2.7.3.6 1.3-.8v1.4h.6zm6.3 0v-1.4l1.2.8.3-.6-1.2-.7 1.2-.7-.3-.5-1.2.7v-1.4h-.6v1.4l-1.3-.7-.3.5 1.2.7-1.2.7.3.6 1.3-.8v1.4h.6zm6.3 0v-1.4l1.2.8.3-.6-1.2-.7 1.2-.7-.3-.5-1.2.7v-1.4h-.6v1.4l-1.3-.7-.3.5 1.2.7-1.2.7.3.6 1.3-.8v1.4h.6zm6.3 0v-1.4l1.2.8.3-.6-1.2-.7 1.2-.7-.3-.5-1.2.7v-1.4h-.6v1.4l-1.3-.7-.3.5 1.3.7-1.3.7.3.6 1.3-.8v1.4h.6zm10.8 0v-1.4l1.3.8.3-.6-1.2-.7 1.2-.7-.3-.5-1.3.7v-1.4h-.6v1.4l-1.2-.7-.3.5 1.2.7-1.2.7.3.6 1.2-.8v1.4h.6zm6.4 0v-1.4l1.2.8.3-.6-1.2-.7 1.2-.7-.3-.5-1.3.7v-1.4h-.6v1.4l-1.2-.7-.3.5 1.2.7-1.2.7.3.6 1.3-.8v1.4h.6zm6.3 0v-1.4l1.2.8.3-.6-1.2-.7 1.2-.7-.3-.5-1.2.7v-1.4h-.6v1.4l-1.3-.7-.3.5 1.2.7-1.2.7.3.6 1.3-.8v1.4h.6zm6.3 0v-1.4l1.2.8.3-.6-1.2-.7 1.2-.7-.3-.5-1.2.7v-1.4h-.6v1.4l-1.3-.7-.3.5 1.2.7-1.2.7.3.6 1.3-.8v1.4h.6zm10.8 0v-1.4l1.3.8.3-.6-1.2-.7 1.2-.7-.3-.5-1.3.7v-1.4h-.6v1.4l-1.2-.7-.3.5 1.2.7-1.2.7.3.6 1.2-.8v1.4h.6zm6.3 0v-1.4l1.3.8.3-.6-1.2-.7 1.2-.7-.3-.5-1.3.7v-1.4h-.6v1.4l-1.2-.7-.3.5 1.2.7-1.2.7.3.6 1.2-.8v1.4h.6zm6.4 0v-1.4l1.2.8.3-.6-1.2-.7 1.2-.7-.3-.5-1.3.7v-1.4h-.6v1.4l-1.2-.7-.3.5 1.2.7-1.2.7.3.6 1.3-.8v1.4h.6zm6.3 0v-1.4l1.2.8.3-.6-1.2-.7 1.2-.7-.3-.5-1.3.7v-1.4h-.6v1.4l-1.2-.7-.3.5 1.2.7-1.2.7.3.6 1.3-.8v1.4h.6z" fill="#794FEC" fill-rule="nonzero"/>
    </g>
    <g mask="url(#b)">
      <g transform="translate(409.4 231.2)">
        <use fill="#000" filter="url(#n)" xlink:href="#o"/>
        <use fill="#FFF" xlink:href="#o"/>
      </g>
      <g fill-rule="nonzero">
        <g fill="#009DDD">
          <path d="M440.5 259a10.5 10.5 0 000-15.5 10.5 10.5 0 100 15.6z"/>
          <path d="M440.5 259a10.5 10.5 0 000-15.5V259z"/>
        </g>
        <path d="M447.5 240.8a10.5 10.5 0 00-8 3.8h2l.8 1h-3.7l-.6 1.2h5l.4 1.1h-5.8l-.3 1.1h6.4a11.2 11.2 0 01-.3 5.6h-5.8c0 .4.2.7.4 1.1h5l-.7 1.1h-3.7l.8 1.1h2.1l-1 1.2a10.5 10.5 0 107-18.3z" fill="#ED1C2E"/>
        <g fill="#FFF">
          <path d="M454.4 253.9c0-.4.3-.7.7-.7.4 0 .7.3.7.7 0 .3-.3.7-.7.7a.7.7 0 01-.7-.7zm.7.5c.3 0 .5-.2.5-.5s-.2-.5-.5-.5-.5.2-.5.5.2.5.5.5zm0-.2h-.2v-.6h.4V254.2h-.1v-.3h-.2v.3zm0-.4v-.1.1zM432.1 253.9h-1.3l.8-4.1-1.8 4h-1.2l-.2-4-.8 4h-1.2l1-5.2h2l.2 3.2 1.4-3.2h2.1zM446.7 253.8l-1 .2c-.6 0-1-.4-1-1l.1-.4v-.4l.1-.3.6-3.3h1.3l-.1 1h.6l-.2 1h-.6l-.4 1.8v.2c0 .2.1.3.4.3h.4l-.2 1zM450.5 249.6h-.1l-.1-.1h-.1c-.5 0-.8.2-1.2.7l.1-.7H448l-.8 4.4h1.4c.4-2.7.6-3.1 1.3-3.1H450l.4-1.2zM441.5 251c0 .5.4.8 1 1.1.6.2.7.3.7.5 0 .3-.3.4-.8.4-.4 0-.8 0-1.2-.2l-.1 1h.2l.4.1h.7c1.4 0 2-.4 2-1.4 0-.6-.2-1-.9-1.2-.5-.2-.6-.3-.6-.5s.2-.3.7-.3h1v-1h-1c-1.5 0-2 .6-2 1.4zM436.4 253.9h-1.1v-.5c-.3.4-.8.5-1.4.5-.7 0-1.2-.4-1.2-1.1 0-1 .9-1.7 2.3-1.7h.6v-.2c0-.3-.2-.4-.8-.4h-1.1l-.2.1h-.1l.2-1a6 6 0 011.5-.1c1.2 0 1.8.4 1.8 1.2l-.2.9-.2 1.5v.3l-.1.2v.2zm-1-2h-.3c-.7 0-1 .3-1 .7 0 .3 0 .4.4.4.5 0 .9-.4 1-1zM440.7 253.8a5 5 0 01-1.4.2c-1.4 0-2.2-.7-2.2-2 0-1.5 1-2.6 2.3-2.6 1 0 1.7.7 1.7 1.6l-.1 1h-2.6v.2c0 .5.3.8 1.1.8.5 0 1-.1 1.4-.3l-.2 1zm-.7-2.6v-.2c0-.4-.3-.6-.7-.6-.4 0-.7.3-.8.8h1.5zM454.6 252c-.2 1.4-1.2 2-2.5 2-1.5 0-2-.9-2-2 0-1.5 1-2.6 2.5-2.6 1.3 0 2 .9 2 2v.5zm-1.3-.6c0-.5-.2-1-.8-1-.6 0-1 .9-1 1.6 0 .5.3 1 .7 1 .3 0 1-.5 1-1.1v-.5z"/>
        </g>
      </g>
    </g>
    <g mask="url(#b)">
      <g transform="translate(41.7 70)">
        <use fill="#000" filter="url(#p)" xlink:href="#q"/>
        <use fill="#FFF" xlink:href="#q"/>
      </g>
      <g fill-rule="nonzero">
        <path d="M88.6 89.9c0-1.2-.5-2.5-1.3-3.4-1-1-2-1.4-3.2-1.4a4.6 4.6 0 00-4.6 4.8c0 2.6 2 4.8 4.5 4.8 2.6 0 4.6-2.1 4.6-4.8z" fill="#F26E21"/>
        <g fill="#000">
          <path d="M78.7 92c-.7.6-1.3.9-2 1-1.6-.1-2.9-1.4-2.9-3.2 0-1 .4-1.7.9-2.3.5-.5 1.1-.8 1.9-.8.7 0 1.3.3 2 1v-2.1c-.7-.4-1.3-.6-2-.6a5 5 0 00-3 1.3c-.2.3-.5.5-.6.8-.6.8-1 1.7-1 2.8 0 2.7 2 4.7 4.6 4.7.7 0 1.3-.2 2.1-.6v-2zM94.3 86.4l-2 5-2.2-6h-1.9l3.6 9.3h1l3.7-9.3h-1.8zM97.2 89.4v5h4.8v-1.5h-3v-2.5h3V89h-3v-2h3v-1.5h-4.8zM57.8 85.4h-2.4v9h2.4c1.3 0 2.3-.4 3-1 1-.8 1.6-2.1 1.6-3.5 0-2.7-1.8-4.5-4.6-4.5zm2 6.8c-.5.4-1.2.7-2.3.7H57v-6h.5a3 3 0 013.2 3c0 .8-.3 1.7-.9 2.3zM63.2 85.4H65v9h-1.7zM69 88.9c-1-.4-1.3-.7-1.3-1.1 0-.6.6-1 1.3-1 .5 0 1 .2 1.4.7l.8-1.2c-.7-.6-1.5-1-2.5-1-1.5 0-2.7 1.1-2.7 2.6 0 1.3.5 1.8 2.1 2.5.7.2 1 .3 1.1.5.4.2.6.6.6 1 0 .7-.6 1.2-1.4 1.2a2 2 0 01-1.8-1.2l-1 1.1c.8 1.2 1.7 1.8 3 1.8 1.7 0 2.9-1.2 2.9-3 0-1.5-.5-2.2-2.4-3zM106.7 90.6c1.3-.2 2-1.2 2-2.5 0-1.7-1.1-2.7-3-2.7H103v9h1.7v-3.6h.3l2.3 3.6h2l-2.7-3.8zm-1.4-1h-.5v-2.8h.5c1 0 1.7.4 1.7 1.4 0 .9-.6 1.3-1.7 1.3z"/>
        </g>
      </g>
    </g>
  </g>
</svg>