<?xml version="1.0" encoding="UTF-8"?>
<svg width="129px" height="31px" viewBox="0 0 129 31" version="1.1" xmlns="http://www.w3.org/2000/svg" xmlns:xlink="http://www.w3.org/1999/xlink">
    <title>trustpilot copy</title>
    <g id="Home-page-and-popups" stroke="none" stroke-width="1" fill="none" fill-rule="evenodd">
        <g id="1_Home-page" transform="translate(-40.000000, -3982.000000)" fill-rule="nonzero">
            <g id="reviews" transform="translate(15.000000, 3816.000000)">
                <g id="CTA" transform="translate(0.000000, 113.000000)">
                    <g id="+352" transform="translate(25.000000, 53.000000)">
                        <g id="trustpilot-copy" transform="translate(0.000000, 0.000000)">
                            <g id="star" transform="translate(-0.000000, 0.000000)" fill="#10B024">
                                <path d="M15.8520787,21.9794731 L22.8219244,20.1328891 L25.759628,29.1926892 L15.8520787,21.9794731 L15.8520787,21.9794731 Z M30.7134026,11.1393147 L18.9764953,11.1393147 L15.3567014,0 L11.7369075,11.1393147 L0,11.1393147 L9.48824753,18.0533745 L5.86845365,29.1926892 L15.3567014,22.3335037 L21.225155,18.0533745 L30.7134026,11.1393147 Z" id="Shape"/>
                            </g>
                            <g id="Trustpilot" transform="translate(34.292409, 10.130681)" fill="#3A3830">
                                <path d="M11.0140354,0.639339611 L11.0140354,2.98358485 L6.7595943,2.98358485 L6.7595943,15.5572639 L4.27603729,15.5572639 L4.27603729,2.98358485 L0,2.98358485 L0,0.639339611 L11.0140354,0.639339611 Z M15.030919,6.69175459 C15.6212165,5.37044563 16.7298078,4.7098018 18.3567257,4.7098018 L18.3567257,7.20322628 C17.4640805,7.14639432 16.6866269,7.35595386 16.0243418,7.83191023 C15.3620567,8.30786483 15.030919,9.0928247 15.030919,10.1868111 L15.030919,15.5572639 L12.698535,15.5572639 L12.698535,4.90160368 L15.030919,4.90160368 L15.030919,6.69175459 Z M27.3623194,4.90160368 L29.6947034,4.90160368 L29.6947034,15.5572639 L27.3623194,15.5572639 L27.3623194,14.1933394 C26.6568417,15.2873258 25.5410518,15.834311 24.0149165,15.834311 C22.7767312,15.834311 21.7761196,15.443607 21.0130519,14.6621884 C20.2499843,13.880768 19.8684561,12.8081089 19.8684561,11.444179 L19.8684561,4.90160368 L22.2008401,4.90160368 L22.2008401,11.2097545 C22.2008401,12.0053771 22.4167994,12.6162981 22.8487245,13.0425281 C23.2806496,13.4687562 23.8709384,13.6818677 24.6196086,13.6818677 C25.4402664,13.6818677 26.1025416,13.4296855 26.6064542,12.9253158 C27.1103669,12.4209443 27.3623194,11.6501938 27.3623194,10.6130375 L27.3623194,4.90160368 Z M34.5106444,7.84256589 C34.5106444,8.19775634 34.7086071,8.47835184 35.1045385,8.68436305 C35.5004698,8.89037248 35.9827789,9.06796504 36.5514804,9.21714606 C37.1201818,9.3663253 37.692474,9.54036597 38.2683741,9.73927341 C38.8442743,9.93817906 39.3301828,10.2756048 39.7261141,10.7515611 C40.1220455,11.2275157 40.3200082,11.8277793 40.3200082,12.5523677 C40.3200082,13.5753146 39.9204834,14.3780339 39.121422,14.9605469 C38.3223605,15.5430581 37.3181497,15.834311 36.1087593,15.834311 C35.043344,15.834311 34.1291162,15.6140958 33.3660486,15.1736601 C32.6029847,14.7332226 32.0486853,14.1223052 31.7031452,13.3408865 L33.7115869,12.1900752 C34.0859219,13.2130222 34.8849715,13.7244903 36.1087593,13.7244903 C37.3325472,13.7244903 37.9444319,13.3266826 37.9444319,12.5310564 C37.9444319,12.1900735 37.7464692,11.9130281 37.3505378,11.6999149 C36.9546065,11.4867999 36.4722974,11.3056555 35.9035959,11.1564762 C35.3348945,11.0072952 34.7626023,10.8332545 34.1867022,10.6343489 C33.610802,10.4354414 33.1248935,10.1051195 32.7289622,9.64337247 C32.3330308,9.18162364 32.1350681,8.59556943 32.1350681,7.88518854 C32.1350681,6.90486247 32.5129969,6.11635072 33.2688659,5.51963197 C34.0247348,4.92291145 34.9641579,4.62455652 36.0871632,4.62455652 C36.9798085,4.62455652 37.7752587,4.81990674 38.4735375,5.21061783 C39.1718164,5.60132715 39.7081155,6.14476049 40.0824506,6.84093384 L38.1172011,7.92781118 C37.7428661,7.11797567 37.0661934,6.71306592 36.0871632,6.71306592 C35.6408406,6.71306592 35.266511,6.80896508 34.9641635,7.00076874 C34.661816,7.19257062 34.5106444,7.4731679 34.5106444,7.84256589 Z M48.3969675,7.117981 L45.7190452,7.117981 L45.7190452,12.2326979 C45.7190452,12.6731336 45.8198261,12.989248 46.0213912,13.1810516 C46.2229564,13.3728535 46.5217,13.4794101 46.9176314,13.5007215 C47.3135627,13.5220328 47.8066699,13.5184809 48.3969675,13.4900658 L48.3969675,15.5572639 C46.6116769,15.7703771 45.3303185,15.6176477 44.5528532,15.0990705 C43.7753879,14.5804915 43.3866612,13.6250446 43.3866612,12.2326979 L43.3866612,7.117981 L41.3998156,7.117981 L41.3998156,4.90160368 L43.3866612,4.90160368 L43.3866612,2.59998108 L45.7190452,1.91801883 L45.7190452,4.90160368 L48.3969675,4.90160368 L48.3969675,7.117981 Z M56.7330806,4.62455652 C58.2160235,4.62455652 59.4829849,5.16798986 60.5340026,6.25487253 C61.5850204,7.34175519 62.1105214,8.66659474 62.1105214,10.2294338 C62.1105214,11.8064786 61.5850204,13.1348718 60.5340026,14.2146507 C59.4829849,15.2944296 58.2160235,15.834311 56.7330806,15.834311 C55.0917651,15.834311 53.8320024,15.2375994 52.9537547,14.0441601 L52.9537547,19.8195279 L50.6213707,19.8195279 L50.6213707,4.90160368 L52.9537547,4.90160368 L52.9537547,6.43601875 C53.8320024,5.22837016 55.0917651,4.62455652 56.7330806,4.62455652 Z M53.9255814,12.6802356 C54.5734691,13.319577 55.3869159,13.639245 56.3659461,13.639245 C57.3449763,13.639245 58.1584231,13.3160251 58.8063108,12.66958 C59.4541985,12.023133 59.7781375,11.2097581 59.7781375,10.2294338 C59.7781375,9.24910771 59.4541985,8.43573275 58.8063108,7.78928759 C58.1584231,7.14284066 57.3449763,6.81962252 56.3659461,6.81962252 C55.3869159,6.81962252 54.5734691,7.14284066 53.9255814,7.78928759 C53.2776937,8.43573275 52.9537547,9.24910771 52.9537547,10.2294338 C52.9537547,11.2097581 53.2776937,12.0266849 53.9255814,12.6802356 Z M66.429751,2.87702825 C66.141801,3.16117919 65.796266,3.30325466 65.3931359,3.30325466 C64.9900059,3.30325466 64.6408715,3.1576273 64.3457228,2.86637259 C64.050574,2.5751161 63.9030017,2.23058664 63.9030017,1.83277355 C63.9030017,1.43495869 64.0469746,1.09042923 64.3349247,0.799174514 C64.6228748,0.507918026 64.9756082,0.362292446 65.3931359,0.362292446 C65.8106636,0.362292446 66.1633971,0.507918026 66.4513472,0.799174514 C66.7392973,1.09042923 66.8832701,1.43495869 66.8832701,1.83277355 C66.8832701,2.23058664 66.7320985,2.57866799 66.429751,2.87702825 Z M64.2269439,15.5572639 L64.2269439,4.90160368 L66.5593279,4.90160368 L66.5593279,15.5572639 L64.2269439,15.5572639 Z M69.2588464,15.5572639 L69.2588464,0 L71.5912304,0 L71.5912304,15.5572639 L69.2588464,15.5572639 Z M79.3874398,15.834311 C77.8037144,15.834311 76.457568,15.2944296 75.3489601,14.2146507 C74.2403523,13.1348718 73.6860567,11.8064786 73.6860567,10.2294338 C73.6860567,8.65238719 74.2403523,7.32399576 75.3489601,6.24421687 C76.457568,5.16443797 77.8037144,4.62455652 79.3874398,4.62455652 C80.9855619,4.62455652 82.3353086,5.16443797 83.4367175,6.24421687 C84.5381265,7.32399576 85.0888228,8.65238719 85.0888228,10.2294338 C85.0888228,11.8064786 84.5381265,13.1348718 83.4367175,14.2146507 C82.3353086,15.2944296 80.9855619,15.834311 79.3874398,15.834311 Z M76.9902674,12.637613 C77.638155,13.2769544 78.4372039,13.5966224 79.3874398,13.5966224 C80.3376757,13.5966224 81.1367242,13.2769544 81.7846122,12.637613 C82.4325002,11.9982698 82.7564389,11.1955505 82.7564389,10.2294338 C82.7564389,9.26331526 82.4325002,8.46059596 81.7846122,7.82125457 C81.1367242,7.18191141 80.3376757,6.86224516 79.3874398,6.86224516 C78.4372039,6.86224516 77.638155,7.18191141 76.9902674,7.82125457 C76.3423797,8.46059596 76.0184407,9.26331526 76.0184407,10.2294338 C76.0184407,11.1955505 76.3423797,11.9982698 76.9902674,12.637613 Z M93.2305706,7.117981 L90.5526483,7.117981 L90.5526483,12.2326979 C90.5526483,12.6731336 90.6534285,12.989248 90.8549943,13.1810516 C91.0565602,13.3728535 91.3553033,13.4794101 91.7512345,13.5007215 C92.1471657,13.5220328 92.6402723,13.5184809 93.2305706,13.4900658 L93.2305706,15.5572639 C91.44528,15.7703771 90.1639212,15.6176477 89.3864563,15.0990705 C88.6089914,14.5804915 88.2202643,13.6250446 88.2202643,12.2326979 L88.2202643,7.117981 L86.2334187,7.117981 L86.2334187,4.90160368 L88.2202643,4.90160368 L88.2202643,2.59998108 L90.5526483,1.91801883 L90.5526483,4.90160368 L93.2305706,4.90160368 L93.2305706,7.117981 Z" id="Combined-Shape"/>
                            </g>
                        </g>
                    </g>
                </g>
            </g>
        </g>
    </g>
</svg>