<?xml version="1.0" encoding="UTF-8"?>
<svg width="40px" height="40px" viewBox="0 0 40 40" version="1.1" xmlns="http://www.w3.org/2000/svg" xmlns:xlink="http://www.w3.org/1999/xlink">
    <title>icon/dollar</title>
    <g id="Landing-page" stroke="none" stroke-width="1" fill="none" fill-rule="evenodd">
        <g id="27-Landing-page" transform="translate(-410.000000, -5316.000000)">
            <g id="samples" transform="translate(0.000000, 5010.000000)">
                <g id="text" transform="translate(135.000000, 100.000000)">
                    <g id="buttons" transform="translate(15.000000, 200.000000)">
                        <g id="icon/dollar" transform="translate(260.000000, 6.000000)">
                            <rect id="Base" stroke="#FFD46C" stroke-width="2" x="1" y="1" width="38" height="38" rx="16"/>
                            <g id="noun_users_943303" transform="translate(8.000000, 13.000000)" fill="#FFD46C" fill-rule="nonzero">
                                <path d="M6.11621521,9.95529042 C6.22307978,9.95529042 6.32867214,9.96056515 6.43299231,9.97036107 C6.73221309,9.99874411 6.96629738,10.257708 6.96629738,10.5596232 C6.96629738,10.7251491 6.89836205,10.877865 6.7754678,10.9896389 C6.64926584,11.1041758 6.4767559,11.1616954 6.30297376,11.146876 C6.24139942,11.1416013 6.17906175,11.1390895 6.11621521,11.1390895 L6.11621521,11.1390895 L4.01683541,11.1390895 C2.79221839,11.1390895 1.79608799,12.122449 1.79608799,13.3313658 L1.79608799,13.3313658 L1.79608799,13.5747567 L0.596660482,13.5747567 L0.596660482,13.3313658 C0.596660482,11.4696389 2.13093029,9.95503925 4.01683541,9.95529042 L4.01683541,9.95529042 Z M20.076035,9.95503925 C21.9619401,9.95503925 23.4962099,11.4696389 23.4962099,13.3313658 L23.4962099,13.3313658 L23.4962099,13.5747567 L22.2967824,13.5747567 L22.2967824,13.3313658 C22.2967824,12.122449 21.300652,11.1390895 20.076035,11.1390895 L20.076035,11.1390895 L17.9766552,11.1390895 C17.9356904,11.1390895 17.8949801,11.1400942 17.8545243,11.142606 C17.6906653,11.1518995 17.5331672,11.095887 17.4128174,10.984113 C17.2932309,10.8728414 17.2247866,10.7158556 17.2247866,10.5530926 C17.2247866,10.237865 17.4782083,9.97739403 17.8016008,9.95981162 C17.859613,9.95679749 17.9178797,9.95503925 17.9766552,9.95503925 L17.9766552,9.95503925 Z M13.2043891,8.45475667 C13.9254704,8.45475667 14.6267055,8.66197802 15.2322714,9.05406593 C16.2853962,9.73576138 16.9141161,10.8808791 16.9141161,12.1169231 L16.9141161,12.1169231 L16.9141161,13.5745055 L15.7146886,13.5745055 L15.7146886,12.1169231 C15.7146886,10.7505181 14.5882852,9.63880691 13.2041346,9.63880691 L13.2041346,9.63880691 L10.8889902,9.63880691 C9.50458521,9.63880691 8.37843626,10.7505181 8.37843626,12.1169231 L8.37843626,12.1169231 L8.37843626,13.5745055 L7.17951763,13.5745055 L7.17951763,12.1169231 C7.17951763,11.2965777 7.45202226,10.5186813 7.967771,9.86737834 C8.67867479,8.96967033 9.74350384,8.45475667 10.8892446,8.45475667 L10.8892446,8.45475667 Z M5.06665253,3.56383046 C6.6380705,3.56383046 7.91662868,4.82574568 7.91662868,6.37726845 C7.91662868,7.92879121 6.63832494,9.19095761 5.06665253,9.19095761 C3.49498012,9.19095761 2.21642195,7.92879121 2.21642195,6.37726845 C2.21642195,4.82574568 3.49523456,3.56383046 5.06665253,3.56383046 Z M19.0262179,3.56383046 C20.5978903,3.56383046 21.8764484,4.82574568 21.8764484,6.37726845 C21.8764484,7.92879121 20.5978903,9.19095761 19.0262179,9.19095761 C17.4547999,9.19095761 16.1759873,7.92879121 16.1759873,6.37726845 C16.1759873,4.82574568 17.4545455,3.56383046 19.0262179,3.56383046 Z M5.06665253,4.74762951 C4.15626822,4.74762951 3.41584946,5.47880691 3.41584946,6.37726845 C3.41584946,7.27572998 4.15626822,8.00690738 5.06665253,8.00690738 C5.97703684,8.00690738 6.71745561,7.27598116 6.71745561,6.37726845 C6.71745561,5.47855573 5.97703684,4.74762951 5.06665253,4.74762951 Z M19.0262179,4.74762951 C18.116088,4.74762951 17.3754148,5.47880691 17.3754148,6.37726845 C17.3754148,7.27572998 18.116088,8.00690738 19.0262179,8.00690738 C19.9363477,8.00690738 20.6770209,7.27598116 20.6770209,6.37726845 C20.6770209,5.47855573 19.9366022,4.74762951 19.0262179,4.74762951 Z M12.0464352,0.909638933 C14.0234296,0.909638933 15.6317413,2.49733124 15.6317413,4.44897959 C15.6317413,6.40062794 14.0231752,7.98832025 12.0464352,7.98832025 C10.0694408,7.98832025 8.46112908,6.40037677 8.46112908,4.44897959 C8.46112908,2.49733124 10.0694408,0.909638933 12.0464352,0.909638933 Z M12.0464352,2.09343799 C10.7307289,2.09343799 9.66030215,3.15014129 9.66030215,4.44897959 C9.66030215,5.74756672 10.7307289,6.80427002 12.0464352,6.80427002 C13.3618871,6.80427002 14.4323138,5.74756672 14.4323138,4.44897959 C14.4323138,3.15014129 13.3618871,2.09343799 12.0464352,2.09343799 Z" id="Combined-Shape"/>
                            </g>
                        </g>
                    </g>
                </g>
            </g>
        </g>
    </g>
</svg>