<?xml version="1.0" encoding="UTF-8"?>
<svg width="20px" height="41px" viewBox="0 0 20 41" version="1.1" xmlns="http://www.w3.org/2000/svg" xmlns:xlink="http://www.w3.org/1999/xlink">
    <!-- Generator: Sketch 57.1 (83088) - https://sketch.com -->
    <title>Group 5</title>
    <desc>Created with Sketch.</desc>
    <g id="Home-page" stroke="none" stroke-width="1" fill="none" fill-rule="evenodd">
        <g id="UI-kit" transform="translate(-538.000000, -7712.000000)">
            <g id="Icons&amp;Other-symbols" transform="translate(280.000000, 7203.000000)">
                <g id="rates" transform="translate(0.000000, 509.000000)">
                    <g id="stars">
                        <g id="stars-copy-4" transform="translate(154.000000, 0.000000)">
                            <g id="Group-5" transform="translate(104.000000, 0.000000)">
                                <path d="M9.99724516,36.9873553 L15.5685388,40.4303613 C15.9780343,40.6841726 16.4845156,40.3089732 16.3767536,39.8344564 L14.9004146,33.3457144 L19.8143603,28.9867806 C20.1699748,28.6667576 19.9867795,28.0598175 19.5018506,28.0156764 L13.0253564,27.4528773 L10.4929502,21.3393347 C10.3097549,20.8868884 9.68473545,20.8868884 9.50154011,21.3393347 L6.96913389,27.4528773 L0.492639684,28.0156764 C0.0184870305,28.0598175 -0.17548451,28.6667576 0.190906177,28.9867806 L5.10485186,33.3457144 L3.62851292,39.8344564 C3.52075095,40.3089732 4.02723219,40.6841726 4.43672767,40.4303613 L9.99724516,36.9873553 Z" id="🔹Icon-Color-Copy-5" fill="#FFBF2D"/>
                                <path d="M16.0941775,19.0674592 L16.0953648,19.0681929 C16.0949691,19.0679477 16.0945734,19.0677031 16.0941775,19.0674592 Z M15.1621776,18.491492 L13.7940181,12.478216 L14.2368181,12.0854287 L18.3804827,8.40980441 L12.3338571,7.8843604 L12.1014819,7.32337776 L9.99725949,2.24345472 L7.66063316,7.8843604 L7.05570635,7.93692776 L1.62383562,8.40893445 L6.21124839,12.478216 L6.07993192,13.0553726 L4.84338485,18.4901912 L9.99673589,15.2992979 L10.5229494,15.6244928 L15.1621776,18.491492 Z M9.56904472,1.20967708 L9.5660478,1.20244205 C9.56703055,1.2048692 9.56802958,1.20728086 9.5690447,1.20967704 Z M0.859920057,7.73130031 C0.858131971,7.72968919 0.856326218,7.72808732 0.854502752,7.72649487 L0.859920154,7.73130039 Z" id="🔹Icon-Color-Copy-7" stroke="#FECE62" stroke-width="2"/>
                            </g>
                        </g>
                    </g>
                </g>
            </g>
        </g>
    </g>
</svg>