<?xml version="1.0" encoding="UTF-8"?>
<svg width="107px" height="16px" viewBox="0 0 107 16" version="1.1" xmlns="http://www.w3.org/2000/svg" xmlns:xlink="http://www.w3.org/1999/xlink">
    <title>Group</title>
    <g id="Home-page-and-popups" stroke="none" stroke-width="1" fill="none" fill-rule="evenodd">
        <g id="1_Home-page" transform="translate(-54.000000, -586.000000)" fill="#FFFFFF" fill-rule="nonzero">
            <g id="ill" transform="translate(11.000000, 544.000000)">
                <g id="bubble-rate" transform="translate(19.311594, 25.487578)">
                    <g id="stars-4.5-copy" transform="translate(22.000000, 14.000000)">
                        <g id="Group" transform="translate(2.750000, 3.666667)">
                            <path d="M7.33333333,10.485456 L10.5198413,9.68553459 L11.8511905,13.75 L7.33333333,10.485456 Z M14.6666667,5.23191824 L9.05753968,5.23191824 L7.33333333,0 L5.60912698,5.23191824 L-3.00204306e-13,5.23191824 L4.53968254,8.47484277 L2.81547619,13.706761 L7.35515873,10.4638365 L10.1488095,8.47484277 L14.6666667,5.23191824 L14.6666667,5.23191824 L14.6666667,5.23191824 L14.6666667,5.23191824 Z" id="Shape"/>
                            <path d="M31.1666667,10.485456 L34.3531746,9.68553459 L35.6845238,13.75 L31.1666667,10.485456 Z M38.5,5.23191824 L32.890873,5.23191824 L31.1666667,0 L29.4424603,5.23191824 L23.8333333,5.23191824 L28.3730159,8.47484277 L26.6488095,13.706761 L31.1884921,10.4638365 L33.9821429,8.47484277 L38.5,5.23191824 L38.5,5.23191824 L38.5,5.23191824 L38.5,5.23191824 Z" id="Shape"/>
                            <path d="M53.1666667,10.485456 L56.3531746,9.68553459 L57.6845238,13.75 L53.1666667,10.485456 Z M60.5,5.23191824 L54.890873,5.23191824 L53.1666667,0 L51.4424603,5.23191824 L45.8333333,5.23191824 L50.3730159,8.47484277 L48.6488095,13.706761 L53.1884921,10.4638365 L55.9821429,8.47484277 L60.5,5.23191824 L60.5,5.23191824 L60.5,5.23191824 L60.5,5.23191824 Z" id="Shape"/>
                            <path d="M74.25,10.485456 L77.4365079,9.68553459 L78.7678571,13.75 L74.25,10.485456 Z M81.5833333,5.23191824 L75.9742063,5.23191824 L74.25,0 L72.5257937,5.23191824 L66.9166667,5.23191824 L71.4563492,8.47484277 L69.7321429,13.706761 L74.2718254,10.4638365 L77.0654762,8.47484277 L81.5833333,5.23191824 L81.5833333,5.23191824 L81.5833333,5.23191824 L81.5833333,5.23191824 Z" id="Shape"/>
                            <path d="M97.1666667,10.485456 L100.353175,9.68553459 L101.684524,13.75 L97.1666667,10.485456 Z M104.5,5.23191824 L98.890873,5.23191824 L97.1666667,0 L95.4424603,5.23191824 L89.8333333,5.23191824 L94.3730159,8.47484277 L92.6488095,13.706761 L97.1884921,10.4638365 L99.9821429,8.47484277 L104.5,5.23191824 L104.5,5.23191824 L104.5,5.23191824 L104.5,5.23191824 Z" id="Shape"/>
                        </g>
                    </g>
                </g>
            </g>
        </g>
    </g>
</svg>