<svg width="22" height="22" viewBox="0 0 22 22" fill="none" xmlns="http://www.w3.org/2000/svg">
<path d="M8.25 13.75C8.25 14.2563 7.83959 14.6667 7.33333 14.6667C6.82707 14.6667 6.41667 14.2563 6.41667 13.75C6.41667 13.2437 6.82707 12.8333 7.33333 12.8333C7.83959 12.8333 8.25 13.2437 8.25 13.75Z" fill="#8F8F8F"/>
<path d="M8.25 10.0833C8.25 10.5896 7.83959 11 7.33333 11C6.82707 11 6.41667 10.5896 6.41667 10.0833C6.41667 9.57707 6.82707 9.16667 7.33333 9.16667C7.83959 9.16667 8.25 9.57707 8.25 10.0833Z" fill="#8F8F8F"/>
<path d="M11.9167 13.75C11.9167 14.2563 11.5063 14.6667 11 14.6667C10.4937 14.6667 10.0833 14.2563 10.0833 13.75C10.0833 13.2437 10.4937 12.8333 11 12.8333C11.5063 12.8333 11.9167 13.2437 11.9167 13.75Z" fill="#8F8F8F"/>
<path d="M11.9167 10.0833C11.9167 10.5896 11.5063 11 11 11C10.4937 11 10.0833 10.5896 10.0833 10.0833C10.0833 9.57707 10.4937 9.16667 11 9.16667C11.5063 9.16667 11.9167 9.57707 11.9167 10.0833Z" fill="#8F8F8F"/>
<path d="M15.5833 10.0833C15.5833 10.5896 15.1729 11 14.6667 11C14.1604 11 13.75 10.5896 13.75 10.0833C13.75 9.57707 14.1604 9.16667 14.6667 9.16667C15.1729 9.16667 15.5833 9.57707 15.5833 10.0833Z" fill="#8F8F8F"/>
<path fill-rule="evenodd" clip-rule="evenodd" d="M11 4.35417C9.05972 4.35417 6.40882 4.5223 4.75429 4.64336C4.20979 4.6832 3.78074 5.10869 3.73653 5.65182C3.60891 7.21943 3.4375 9.66325 3.4375 11.4583C3.4375 13.2534 3.60891 15.6972 3.73653 17.2649C3.78074 17.808 4.20979 18.2335 4.75429 18.2733C6.40882 18.3944 9.05972 18.5625 11 18.5625C12.9403 18.5625 15.5912 18.3944 17.2457 18.2733C17.7902 18.2335 18.2193 17.808 18.2635 17.2649C18.3911 15.6972 18.5625 13.2534 18.5625 11.4583C18.5625 9.66325 18.3911 7.21943 18.2635 5.65182C18.2193 5.10869 17.7902 4.6832 17.2457 4.64336C15.5912 4.5223 12.9403 4.35417 11 4.35417ZM4.65395 3.27202C6.30923 3.15091 9.00455 2.97917 11 2.97917C12.9954 2.97917 15.6908 3.15091 17.346 3.27202C18.5655 3.36125 19.5346 4.3205 19.6339 5.54025C19.7617 7.10911 19.9375 9.60207 19.9375 11.4583C19.9375 13.3146 19.7617 15.8076 19.6339 17.3764C19.5346 18.5962 18.5655 19.5554 17.346 19.6446C15.6908 19.7658 12.9954 19.9375 11 19.9375C9.00455 19.9375 6.30924 19.7658 4.65395 19.6446C3.43447 19.5554 2.46536 18.5962 2.36606 17.3764C2.23834 15.8076 2.0625 13.3146 2.0625 11.4583C2.0625 9.60207 2.23834 7.10911 2.36606 5.54025C2.46536 4.3205 3.43447 3.36125 4.65395 3.27202Z" fill="#8F8F8F"/>
<path fill-rule="evenodd" clip-rule="evenodd" d="M8.25 2.0625C8.6297 2.0625 8.9375 2.3703 8.9375 2.75V5.04167C8.9375 5.42136 8.6297 5.72917 8.25 5.72917C7.8703 5.72917 7.5625 5.42136 7.5625 5.04167V2.75C7.5625 2.3703 7.8703 2.0625 8.25 2.0625Z" fill="#8F8F8F"/>
<path fill-rule="evenodd" clip-rule="evenodd" d="M13.75 2.0625C14.1297 2.0625 14.4375 2.3703 14.4375 2.75L14.4375 5.04167C14.4375 5.42136 14.1297 5.72917 13.75 5.72917C13.3703 5.72917 13.0625 5.42136 13.0625 5.04167L13.0625 2.75C13.0625 2.3703 13.3703 2.0625 13.75 2.0625Z" fill="#8F8F8F"/>
</svg>
