<?xml version="1.0" encoding="UTF-8"?>
<svg width="36px" height="36px" viewBox="0 0 36 36" version="1.1" xmlns="http://www.w3.org/2000/svg" xmlns:xlink="http://www.w3.org/1999/xlink">
    <!-- Generator: Sketch 53.2 (72643) - https://sketchapp.com -->
    <title>linkedin</title>
    <desc>Created with Sketch.</desc>
    <g id="Symbols" stroke="none" stroke-width="1" fill="none" fill-rule="evenodd">
        <g id="Footer" transform="translate(-1063.000000, -360.000000)" fill-rule="nonzero">
            <g id="linkedin" transform="translate(1063.000000, 360.000000)">
                <ellipse id="Oval" fill="#007AB9" cx="17.8719292" cy="18.0306316" rx="17.8719292" ry="17.7151579"></ellipse>
                <path d="M28.5502301,19.4561053 L28.5502301,26.7596842 L24.2783363,26.7596842 L24.2783363,19.9455789 C24.2783363,18.2346316 23.6615575,17.0662105 22.1148319,17.0662105 C20.9344779,17.0662105 20.2332743,17.8528421 19.9236106,18.6145263 C19.8111504,18.8867368 19.7821593,19.2647368 19.7821593,19.6465263 L19.7821593,26.7593684 L15.5099469,26.7593684 C15.5099469,26.7593684 15.567292,15.2185263 15.5099469,14.0238947 L19.7824779,14.0238947 L19.7824779,15.8286316 C19.7738761,15.8428421 19.7617699,15.8567368 19.7541239,15.8703158 L19.7824779,15.8703158 L19.7824779,15.8286316 C20.3501947,14.9627368 21.3626549,13.7248421 23.6325664,13.7248421 C26.443115,13.7248421 28.5502301,15.5450526 28.5502301,19.4561053 L28.5502301,19.4561053 Z M11.0408496,7.88494737 C9.57950442,7.88494737 8.62343363,8.83578947 8.62343363,10.0850526 C8.62343363,11.3077895 9.55178761,12.2861053 10.9847788,12.2861053 L11.0124956,12.2861053 C12.5025133,12.2861053 13.4289558,11.3077895 13.4289558,10.0850526 C13.4006018,8.83578947 12.5025133,7.88494737 11.0408496,7.88494737 L11.0408496,7.88494737 Z M8.87734513,26.7596842 L13.1479646,26.7596842 L13.1479646,14.0238947 L8.87734513,14.0238947 L8.87734513,26.7596842 Z" id="Shape" fill="#F1F2F2"></path>
            </g>
        </g>
    </g>
</svg>