<?xml version="1.0" encoding="UTF-8"?>
<svg width="36px" height="36px" viewBox="0 0 36 36" version="1.1" xmlns="http://www.w3.org/2000/svg" xmlns:xlink="http://www.w3.org/1999/xlink">
    <!-- Generator: Sketch 53.2 (72643) - https://sketchapp.com -->
    <title>pinterest</title>
    <desc>Created with Sketch.</desc>
    <g id="Symbols" stroke="none" stroke-width="1" fill="none" fill-rule="evenodd">
        <g id="Footer" transform="translate(-1114.000000, -360.000000)" fill-rule="nonzero">
            <g id="pinterest" transform="translate(1114.000000, 360.000000)">
                <circle id="Oval" fill="#CB2027" cx="17.8722478" cy="17.8725664" r="17.8719292"></circle>
                <path d="M19.3147965,23.9326726 C17.9636814,23.828177 17.3959646,23.1581947 16.336354,22.5149735 C15.7539823,25.5705133 15.0422655,28.4995752 12.9341947,30.0297345 C12.2826903,25.4115398 13.8893097,21.9427965 14.6354336,18.2609204 C13.363646,16.1200354 14.788354,11.8108673 17.4708319,12.872708 C20.7723186,14.1782655 14.6124956,20.8331681 18.7477168,21.664354 C23.0648496,22.532177 24.8272566,14.1734867 22.1498761,11.4546903 C18.2816283,7.52941593 10.8901593,11.3654867 11.7990796,16.9846726 C12.0204956,18.3584071 13.4401062,18.7754336 12.3661593,20.6710088 C9.89044248,20.1227257 9.1519646,18.1701239 9.24690265,15.5669735 C9.40014159,11.3059115 13.075646,8.32237168 16.7623009,7.90948673 C21.4247788,7.38764602 25.8008496,9.62155752 26.404885,14.0071858 C27.0844248,18.9570265 24.3,24.3175221 19.3147965,23.9326726 L19.3147965,23.9326726 Z" id="Path" fill="#F1F2F2"></path>
            </g>
        </g>
    </g>
</svg>